<?xml version="1.0" encoding="UTF-8"?>
<svg version="1.1" xmlns="http://www.w3.org/2000/svg" width="419" height="419">
<path d="M0 0 C138.27 0 276.54 0 419 0 C419 138.27 419 276.54 419 419 C280.73 419 142.46 419 0 419 C0 280.73 0 142.46 0 0 Z " fill="#505050" transform="translate(0,0)"/>
<path d="M0 0 C9.89194915 9.67690678 9.89194915 9.67690678 10.125 14.6875 C10.08375 15.450625 10.0425 16.21375 10 17 C10.66 17 11.32 17 12 17 C17.25556039 38.02224157 13.38010345 60.33410337 13 82 C-26.27 82.33 -65.54 82.66 -106 83 C-100.39346227 88.57731058 -100.39346227 88.57731058 -94 93 C-94 93.66 -94 94.32 -94 95 C-93.34 95 -92.68 95 -92 95 C-92 95.66 -92 96.32 -92 97 C-91.44054687 97.22558594 -90.88109375 97.45117188 -90.3046875 97.68359375 C-80.58674555 103.23435043 -71.91182844 116.6583846 -68 127 C-67.75 130 -67.75 130 -68 132 C-67.34 132 -66.68 132 -66 132 C-62.84191516 141.93052173 -61.39712294 150.80681679 -61.58837891 161.19921875 C-61.62524143 163.26352016 -61.62939364 165.32602569 -61.62890625 167.390625 C-61.69493059 180.12876355 -63.65904433 190.44863076 -69 202 C-69.3815625 202.8559375 -69.763125 203.711875 -70.15625 204.59375 C-73.3076831 211.32248555 -77.46721319 217.13351051 -82 223 C-82.69996094 223.93199219 -83.39992188 224.86398437 -84.12109375 225.82421875 C-84.74113281 226.54222656 -85.36117187 227.26023437 -86 228 C-86.66 228 -87.32 228 -88 228 C-88 228.66 -88 229.32 -88 230 C-88.66 230 -89.32 230 -90 230 C-90 230.66 -90 231.32 -90 232 C-95.47619048 237 -95.47619048 237 -98 237 C-98 237.66 -98 238.32 -98 239 C-98.66 239 -99.32 239 -100 239 C-100 239.66 -100 240.32 -100 241 C-103.465 243.475 -103.465 243.475 -107 246 C-94.79 246.33 -82.58 246.66 -70 247 C-70 263.83 -70 280.66 -70 298 C-86.11037175 298.16043524 -86.11037175 298.16043524 -93.02148438 298.1953125 C-97.72210946 298.21914756 -102.42242044 298.24722645 -107.12280273 298.30175781 C-110.9159341 298.34548418 -114.70872824 298.36919299 -118.50209236 298.37950897 C-119.9432817 298.38685268 -121.38445432 298.40119244 -122.82549858 298.42292023 C-133.27323574 298.57406545 -141.59774243 297.57189573 -149.6875 290.4375 C-156.5175152 283.76938924 -160.27864976 277.18163059 -160.68115234 267.5090332 C-160.70235904 264.68763817 -160.64824774 261.87138311 -160.5859375 259.05078125 C-160.57472012 257.54194339 -160.56619198 256.0330834 -160.56021118 254.5242157 C-160.53751161 250.58966684 -160.47875898 246.65648784 -160.4119873 242.72247314 C-160.35015109 238.69342572 -160.32310885 234.66415274 -160.29296875 230.63476562 C-160.22899083 222.755888 -160.1268491 214.8781153 -160 207 C-158.92476074 206.82041748 -157.84952148 206.64083496 -156.74169922 206.45581055 C-155.30427413 206.20411448 -153.86694169 205.95188889 -152.4296875 205.69921875 C-151.72416748 205.58284058 -151.01864746 205.4664624 -150.29174805 205.34655762 C-144.2952023 204.27463623 -139.58395744 202.18938216 -134.2578125 199.20703125 C-132 198 -132 198 -130 198 C-130 197.34 -130 196.68 -130 196 C-128.68 195.67 -127.36 195.34 -126 195 C-126 194.34 -126 193.68 -126 193 C-125.34 193 -124.68 193 -124 193 C-124 192.34 -124 191.68 -124 191 C-123.34 191 -122.68 191 -122 191 C-121.731875 190.2575 -121.46375 189.515 -121.1875 188.75 C-120 186 -120 186 -118.53125 184.140625 C-112.92833737 176.30798184 -113.25807869 165.4116656 -114.31640625 156.265625 C-115.78290061 147.54592882 -119.82094552 141.24967225 -126 135 C-126.66 134.67 -127.32 134.34 -128 134 C-128 133.34 -128 132.68 -128 132 C-129.0209375 131.62875 -129.0209375 131.62875 -130.0625 131.25 C-133 130 -133 130 -136.1875 128.0625 C-142.13832396 124.61050688 -148.38152646 123.11339044 -155.18237305 122.46166992 C-156.08416794 122.37439133 -156.98596283 122.28711273 -157.91508484 122.19718933 C-158.60310684 122.13211685 -159.29112885 122.06704437 -160 122 C-160.06982278 113.69779203 -160.12297378 105.39570884 -160.15543652 97.09327888 C-160.17102498 93.23720986 -160.19213675 89.38134322 -160.22631836 85.52539062 C-160.25915757 81.79710809 -160.27690416 78.06901899 -160.28463173 74.34060287 C-160.29013155 72.92538284 -160.30087012 71.51017217 -160.31719017 70.09503555 C-160.42583385 60.27474626 -160.24495625 50.14559512 -154 42 C-153.34 42 -152.68 42 -152 42 C-152 41.34 -152 40.68 -152 40 C-151.34 40 -150.68 40 -150 40 C-150 39.34 -150 38.68 -150 38 C-148.0234375 36.5625 -148.0234375 36.5625 -145.375 35 C-144.08722656 34.2265625 -144.08722656 34.2265625 -142.7734375 33.4375 C-137.45450714 30.68064596 -132.9675407 29.75103465 -126.98486328 29.77294922 C-125.97405449 29.77251114 -125.97405449 29.77251114 -124.94282532 29.77206421 C-122.73518596 29.77344765 -120.52789225 29.78896166 -118.3203125 29.8046875 C-116.78189274 29.80842115 -115.2434706 29.81126646 -113.70504761 29.81326294 C-109.6707087 29.82087171 -105.63651552 29.84049628 -101.60223389 29.8626709 C-97.4796343 29.88318892 -93.35701101 29.89227736 -89.234375 29.90234375 C-81.15618339 29.92374499 -73.07810986 29.95784736 -65 30 C-64.96406738 29.05825928 -64.92813477 28.11651855 -64.89111328 27.14624023 C-64.82649902 25.90044189 -64.76188477 24.65464355 -64.6953125 23.37109375 C-64.63875488 22.14060303 -64.58219727 20.9101123 -64.52392578 19.64233398 C-63.66710781 13.68573226 -60.72138533 9.59744586 -57 5 C-56.47277344 4.33226562 -55.94554687 3.66453125 -55.40234375 2.9765625 C-40.98734788 -13.24473507 -16.37849306 -12.40390761 0 0 Z " fill="#34A753" transform="translate(219,55)"/>
<path d="M0 0 C17.06852664 -0.16043524 17.06852664 -0.16043524 24.39453125 -0.1953125 C29.37598912 -0.21914112 34.3571504 -0.24720267 39.33837891 -0.30175781 C43.35844784 -0.34550616 47.37819831 -0.36919761 51.39848709 -0.37950897 C52.9253706 -0.38684875 54.45223845 -0.40118055 55.97898483 -0.42292023 C64.69613684 -0.54200778 72.15159084 -0.1859171 80 4 C80 4.66 80 5.32 80 6 C80.89332031 6.38865234 80.89332031 6.38865234 81.8046875 6.78515625 C84.16071424 8.08893617 85.42481743 9.36790604 87.125 11.4375 C87.62257813 12.03433594 88.12015625 12.63117188 88.6328125 13.24609375 C93.08224812 18.95408402 94.25290796 23.94449575 94.22705078 31.10693359 C94.22734283 31.79055969 94.22763489 32.47418579 94.22793579 33.17852783 C94.2265521 35.41863077 94.21103684 37.65839329 94.1953125 39.8984375 C94.19157894 41.45927753 94.18873359 43.02011992 94.18673706 44.58096313 C94.17912758 48.6744848 94.15950237 52.7678629 94.1373291 56.86132812 C94.11681263 61.04425108 94.10772297 65.2271974 94.09765625 69.41015625 C94.07625375 77.60683647 94.0421505 85.80340034 94 94 C94.82759323 94.05827469 95.65518646 94.11654938 96.50785828 94.17658997 C97.5915419 94.25858139 98.67522552 94.34057281 99.79174805 94.42504883 C100.86684128 94.50394852 101.94193451 94.58284821 103.04960632 94.66413879 C110.92139602 95.56023236 118.69784148 101.23621077 124 107 C130 114.64 130 114.64 130 120 C130.66 120 131.32 120 132 120 C133.92907245 134.70917741 133.63849451 145.57004655 125 158 C122.625 160.75 122.625 160.75 120 163 C119.42636719 163.50273437 118.85273438 164.00546875 118.26171875 164.5234375 C110.91578652 170.5591734 103.19488159 171.88168776 94 173 C94.01110306 173.84001053 94.02220612 174.68002106 94.03364563 175.54548645 C94.13427754 183.50340396 94.21018163 191.46110449 94.25906086 199.41951466 C94.28503615 203.51001683 94.32020928 207.59998856 94.37719727 211.69018555 C94.4319535 215.64543985 94.46151103 219.60018746 94.47438622 223.55579185 C94.48354869 225.05675916 94.50143898 226.5577021 94.52865028 228.0584507 C94.72015864 239.06912421 93.23963019 247.82454628 86.3125 256.6875 C85.549375 257.450625 84.78625 258.21375 84 259 C83.34 259 82.68 259 82 259 C82 259.66 82 260.32 82 261 C80.41925436 261.81752303 78.83528777 262.62881997 77.25 263.4375 C76.36828125 263.88996094 75.4865625 264.34242188 74.578125 264.80859375 C70.19792045 266.83277919 66.57188406 267.12423423 61.74847412 267.12025452 C60.46402405 267.12162918 59.17957397 267.12300385 57.85620117 267.12442017 C56.43505836 267.12088124 55.01391578 267.11724643 53.59277344 267.11352539 C52.09466555 267.11324328 50.59655752 267.11340171 49.09844971 267.1139679 C45.03268843 267.11425496 40.96695662 267.10837292 36.9012022 267.10139394 C32.65176734 267.09514526 28.40233181 267.0945554 24.15289307 267.09336853 C16.10651199 267.09025969 8.06014449 267.08205231 0.01376939 267.07201904 C-9.14696946 267.06084404 -18.30770896 267.05534395 -27.46845293 267.05032361 C-46.31231122 267.03986934 -65.15615089 267.02152939 -84 267 C-84 250.17 -84 233.34 -84 216 C-42.42 216 -0.84 216 42 216 C42 161.55 42 107.1 42 51 C28.14 51 14.28 51 0 51 C0 34.17 0 17.34 0 0 Z " fill="#E94335" transform="translate(233,86)"/>
<path d="M0 0 C9.89194915 9.67690678 9.89194915 9.67690678 10.125 14.6875 C10.08375 15.450625 10.0425 16.21375 10 17 C10.66 17 11.32 17 12 17 C17.25556039 38.02224157 13.38010345 60.33410337 13 82 C-44.09 82 -101.18 82 -160 82 C-160 49.82608696 -160 49.82608696 -154 42 C-153.34 42 -152.68 42 -152 42 C-152 41.34 -152 40.68 -152 40 C-151.34 40 -150.68 40 -150 40 C-150 39.34 -150 38.68 -150 38 C-148.0234375 36.5625 -148.0234375 36.5625 -145.375 35 C-144.08722656 34.2265625 -144.08722656 34.2265625 -142.7734375 33.4375 C-137.45450714 30.68064596 -132.9675407 29.75103465 -126.98486328 29.77294922 C-125.97405449 29.77251114 -125.97405449 29.77251114 -124.94282532 29.77206421 C-122.73518596 29.77344765 -120.52789225 29.78896166 -118.3203125 29.8046875 C-116.78189274 29.80842115 -115.2434706 29.81126646 -113.70504761 29.81326294 C-109.6707087 29.82087171 -105.63651552 29.84049628 -101.60223389 29.8626709 C-97.4796343 29.88318892 -93.35701101 29.89227736 -89.234375 29.90234375 C-81.15618339 29.92374499 -73.07810986 29.95784736 -65 30 C-64.96406738 29.05825928 -64.92813477 28.11651855 -64.89111328 27.14624023 C-64.82649902 25.90044189 -64.76188477 24.65464355 -64.6953125 23.37109375 C-64.63875488 22.14060303 -64.58219727 20.9101123 -64.52392578 19.64233398 C-63.66710781 13.68573226 -60.72138533 9.59744586 -57 5 C-56.47277344 4.33226562 -55.94554687 3.66453125 -55.40234375 2.9765625 C-40.98734788 -13.24473507 -16.37849306 -12.40390761 0 0 Z " fill="#4284F3" transform="translate(219,55)"/>
<path d="M0 0 C17.16 0 34.32 0 52 0 C52.20054405 16.77885191 52.20054405 16.77885191 52.24414062 23.99023438 C52.27390683 28.89049718 52.30892787 33.79028814 52.37719727 38.69018555 C52.4319535 42.64543985 52.46151103 46.60018746 52.47438622 50.55579185 C52.48354869 52.05675916 52.50143898 53.5577021 52.52865028 55.0584507 C52.72015864 66.06912421 51.23963019 74.82454628 44.3125 83.6875 C43.549375 84.450625 42.78625 85.21375 42 86 C41.34 86 40.68 86 40 86 C40 86.66 40 87.32 40 88 C38.41925436 88.81752303 36.83528777 89.62881997 35.25 90.4375 C34.36828125 90.88996094 33.4865625 91.34242188 32.578125 91.80859375 C28.19792045 93.83277919 24.57188406 94.12423423 19.74847412 94.12025452 C18.46402405 94.12162918 17.17957397 94.12300385 15.85620117 94.12442017 C14.43505836 94.12088124 13.01391578 94.11724643 11.59277344 94.11352539 C10.09466555 94.11324328 8.59655752 94.11340171 7.09844971 94.1139679 C3.03268843 94.11425496 -1.03304338 94.10837292 -5.0987978 94.10139394 C-9.34823266 94.09514526 -13.59766819 94.0945554 -17.84710693 94.09336853 C-25.89348801 94.09025969 -33.93985551 94.08205231 -41.98623061 94.07201904 C-51.14696946 94.06084404 -60.30770896 94.05534395 -69.46845293 94.05032361 C-88.31231122 94.03986934 -107.15615089 94.02152939 -126 94 C-126 77.17 -126 60.34 -126 43 C-84.42 43 -42.84 43 0 43 C0 28.81 0 14.62 0 0 Z " fill="#FABB04" transform="translate(275,259)"/>
</svg>
