<?xml version="1.0" encoding="UTF-8"?>
<svg version="1.1" xmlns="http://www.w3.org/2000/svg" width="1000" height="1000">
<path d="M0 0 C2.36465054 -0.00271855 4.72930023 -0.00628428 7.09394836 -0.01062012 C13.43551524 -0.01963321 19.77701609 -0.01624912 26.11858392 -0.00986195 C32.10013013 -0.00527567 38.08167063 -0.00879612 44.06321671 -0.01171634 C56.60472259 -0.01738311 69.14619895 -0.01091476 81.6877 -0.0001156 C92.44611147 0.00886046 103.20447988 0.00722765 113.96289062 -0.00195312 C126.49817954 -0.01264538 139.03344295 -0.01687991 151.56873578 -0.0107286 C158.19047354 -0.00756703 164.81218727 -0.00720201 171.43392372 -0.01380157 C177.63850954 -0.0195561 183.84301334 -0.01561316 190.04759026 -0.00401306 C192.32853687 -0.0013587 194.60949034 -0.00214469 196.89043427 -0.00653839 C199.99116323 -0.01196333 203.09162531 -0.00519772 206.19233704 0.00482178 C207.10465019 0.00036033 208.01696334 -0.00410111 208.95692235 -0.00869775 C215.16110052 0.03048529 215.16110052 0.03048529 217.3894043 2.25878906 C216.97863126 9.07598662 215.59056139 15.67186613 214.18041992 22.34301758 C213.95754807 23.41412781 213.73467621 24.48523804 213.50505066 25.58880615 C213.02347489 27.90045471 212.53997279 30.21170264 212.05473328 32.52258492 C211.28604618 36.18345393 210.52245999 39.845355 209.76013184 43.5075531 C208.27862831 50.62011587 206.79155459 57.73150603 205.30341339 64.84268188 C203.27985054 74.51357084 201.26005573 84.18523912 199.24552917 93.85801506 C198.49433305 97.4591065 197.73916951 101.0593506 196.98376465 104.65956116 C196.52179795 106.8743227 196.05999714 109.08911885 195.59838867 111.30395508 C195.38848801 112.29898544 195.17858734 113.29401581 194.96232605 114.31919861 C194.09435773 118.50060137 193.30069042 122.63668138 192.81384277 126.88096619 C192.3894043 130.25878906 192.3894043 130.25878906 191.3894043 131.25878906 C189.72323315 131.29942738 188.05552335 131.30151006 186.3894043 131.25878906 C185.65834854 128.33456602 185.40219478 125.9134459 185.5144043 122.88378906 C185.62553122 113.12314136 183.0529667 102.80865347 178.3894043 94.25878906 C177.96916992 93.45054687 177.54893555 92.64230469 177.1159668 91.80957031 C168.62854895 76.49939393 153.98006561 67.59963359 137.46655273 62.80566406 C133.3269113 61.71577257 129.15066303 60.8378554 124.9519043 60.00878906 C123.72008423 59.76370605 123.72008423 59.76370605 122.46337891 59.51367188 C106.3957939 56.57892458 89.91885585 57.08129152 73.6550293 57.05566406 C71.82466755 57.051423 71.82466755 57.051423 69.9573288 57.04709625 C63.50337006 57.03219037 57.0494332 57.02290582 50.59545898 57.01855469 C43.98487602 57.01307294 37.37449928 56.98902585 30.76398087 56.96058273 C25.62822914 56.94182558 20.49252592 56.93674391 15.35674286 56.93521881 C12.92186095 56.93222283 10.48697926 56.92429993 8.05213165 56.91103363 C-29.47841004 56.72108005 -66.57049958 64.71018741 -94.6105957 91.25878906 C-95.12847656 91.74105957 -95.64635742 92.22333008 -96.17993164 92.72021484 C-115.63767407 110.95658383 -128.5150178 134.40373027 -137.6105957 159.25878906 C-137.85519531 159.92539551 -138.09979492 160.59200195 -138.35180664 161.27880859 C-148.74966755 190.04532237 -153.74938255 220.12087179 -156.8605957 250.44628906 C-156.94367981 251.25301056 -157.02676392 252.05973206 -157.11236572 252.89089966 C-161.23389523 293.47796961 -165.55850486 346.33649222 -139.30297852 380.984375 C-125.52035555 397.78838435 -107.90098813 406.25916856 -86.4855957 408.50878906 C-55.89026568 411.30322933 -26.00145066 403.1606699 -1.6105957 384.25878906 C-0.75594727 383.60652344 0.09870117 382.95425781 0.97924805 382.28222656 C16.87659942 369.73768817 29.08987476 354.81338457 40.3894043 338.13378906 C40.92235107 337.35455078 41.45529785 336.5753125 42.00439453 335.77246094 C46.06769297 329.66143482 49.60803255 323.31823775 53.1237793 316.88037109 C53.63150879 315.95378189 54.13923828 315.02719269 54.66235352 314.07252502 C55.90618085 311.80208286 57.14848772 309.53082301 58.3894043 307.25878906 C57.82949106 307.25640071 57.26957783 307.25401236 56.69269753 307.25155163 C43.08084839 307.19246508 29.46917944 307.11676596 15.85752296 307.02307415 C9.27506347 306.978271 2.69266729 306.93903695 -3.88989258 306.91235352 C-10.23772649 306.88641962 -16.58531798 306.84608807 -22.93300247 306.7956028 C-25.3595644 306.77886677 -27.78616832 306.76739466 -30.21278 306.76117516 C-33.60134284 306.75160716 -36.98927596 306.72363575 -40.37768555 306.69116211 C-41.89574547 306.69331474 -41.89574547 306.69331474 -43.44447327 306.69551086 C-44.36436539 306.68297272 -45.28425751 306.67043457 -46.23202515 306.65751648 C-47.03398504 306.65290751 -47.83594494 306.64829855 -48.66220665 306.64354992 C-49.30517504 306.51657884 -49.94814342 306.38960775 -50.6105957 306.25878906 C-52.6105957 303.25878906 -52.6105957 303.25878906 -52.54858398 301.39794922 C-50.44381195 291.89205608 -47.57767006 282.58538365 -44.77319336 273.26660156 C-44.08173202 270.96204943 -43.40391742 268.65381472 -42.7277832 266.34472656 C-42.51531952 265.65180511 -42.30285583 264.95888367 -42.08395386 264.2449646 C-40.68769976 259.43220975 -40.51234237 255.26421257 -40.6105957 250.25878906 C-38.84825971 248.49645307 -36.51708188 249.13259838 -34.16909218 249.12325287 C-33.38207106 249.12527962 -32.59504993 249.12730637 -31.78417969 249.12939453 C-30.95415625 249.12766487 -30.1241328 249.12593521 -29.26895714 249.12415314 C-26.46484849 249.11974879 -23.66079906 249.12276874 -20.85668945 249.12597656 C-18.85381553 249.12495973 -16.85094175 249.12361958 -14.84806824 249.12197876 C-9.38810433 249.11924789 -3.92816832 249.12380089 1.53179169 249.13021851 C4.93942856 249.13377604 8.34706121 249.13540586 11.75469971 249.13647461 C63.30261712 249.1564773 114.84541584 249.65888523 166.3894043 250.25878906 C167.58763937 254.45261184 167.01056721 256.30638551 165.3894043 260.25878906 C164.91808343 262.20066885 164.49516766 264.15464217 164.10900879 266.11523438 C163.8746408 267.29268691 163.64027281 268.47013945 163.39880276 269.68327236 C163.02193372 271.615575 163.02193372 271.615575 162.63745117 273.58691406 C162.3639423 274.97077262 162.09000735 276.35454703 161.81568241 277.73824406 C161.06560254 281.52820825 160.32162556 285.31934823 159.57869267 289.11071897 C158.78173832 293.17234813 157.97925638 297.23288534 157.17747498 301.29356384 C155.61789138 309.19691672 154.06359349 317.10130031 152.51106054 325.00604087 C151.24963079 331.42779057 149.98585352 337.84907445 148.7204895 344.27005005 C148.54052947 345.18324428 148.36056943 346.09643851 148.17515606 347.0373053 C147.81041803 348.88810219 147.44567732 350.73889855 147.08093393 352.58969438 C137.23841108 402.53840479 127.46145508 452.49994862 117.7131958 502.46713257 C109.39776522 545.08978271 100.99062452 587.69282928 92.3894043 630.25878906 C89.78358058 631.18944039 88.74742206 631.40796313 86.1394043 630.32128906 C85.5619043 629.97066406 84.9844043 629.62003906 84.3894043 629.25878906 C84.25966321 598.19478178 84.35977295 567.13442577 84.61206055 536.07128906 C84.61748013 535.40233667 84.62289972 534.73338428 84.62848353 534.0441606 C84.74483058 519.71158954 84.86790796 505.37908296 84.997962 491.04662991 C85.0569614 484.51970567 85.11438969 477.99276867 85.1706543 471.46582031 C85.18156664 470.20014536 85.19247898 468.93447041 85.203722 467.63044167 C85.42402469 441.50642918 85.44406144 415.38353532 85.3894043 389.25878906 C84.83891418 390.01818283 84.28842407 390.7775766 83.72125244 391.5599823 C82.99976013 392.55395523 82.27826782 393.54792816 81.53491211 394.57202148 C80.819422 395.55829025 80.10393188 396.54455902 79.36676025 397.56071472 C75.89999417 402.29106819 72.15659686 406.76690603 68.3894043 411.25878906 C67.9567627 411.78311523 67.52412109 412.30744141 67.07836914 412.84765625 C55.74738375 426.57456736 43.46056165 439.32437322 29.3894043 450.25878906 C28.61983398 450.9071875 27.85026367 451.55558594 27.05737305 452.22363281 C-1.19363897 475.88326974 -37.50694245 489.70277156 -74.2980957 489.69628906 C-75.06183502 489.6976889 -75.82557434 489.69908875 -76.61245728 489.70053101 C-90.72283542 489.67939641 -103.9610779 487.96612925 -117.6105957 484.25878906 C-118.38902832 484.05060547 -119.16746094 483.84242188 -119.96948242 483.62792969 C-132.20806169 480.2701308 -144.08982877 475.47706076 -155.58325195 470.11816406 C-157.7139363 469.17023443 -157.7139363 469.17023443 -160.4543457 468.41503906 C-164.0595743 467.09431175 -166.96764343 465.24734276 -170.0480957 463.00878906 C-170.6479126 462.57405273 -171.24772949 462.13931641 -171.86572266 461.69140625 C-203.7538528 437.99104797 -221.69118415 403.71939957 -230.8605957 365.69628906 C-231.21166382 364.29286255 -231.21166382 364.29286255 -231.56982422 362.86108398 C-236.38969552 341.77349942 -237.16687382 319.98923984 -237.0480957 298.44628906 C-237.04505432 297.26078461 -237.04201294 296.07528015 -237.03887939 294.85385132 C-236.9595181 273.7664984 -235.68814829 253.11496826 -232.6105957 232.25878906 C-232.4993335 231.49646973 -232.38807129 230.73415039 -232.2734375 229.94873047 C-224.62522143 177.85847079 -212.34297561 124.98739788 -181.6105957 81.25878906 C-181.12252441 80.56188965 -180.63445312 79.86499023 -180.1315918 79.14697266 C-160.80155584 51.91232155 -135.6508256 32.35771193 -105.6105957 18.25878906 C-104.5071582 17.72511719 -103.4037207 17.19144531 -102.2668457 16.64160156 C-70.57693831 2.07933459 -34.3260337 -0.06748591 0 0 Z " fill="#0000B9" transform="translate(335.610595703125,171.7412109375)"/>
<path d="M0 0 C19.54370303 -0.04709258 39.08739427 -0.08216874 58.63114262 -0.10362434 C67.70927408 -0.11385922 76.78736994 -0.12776688 85.86547852 -0.15087891 C93.79437982 -0.17105523 101.7232553 -0.18377269 109.65218157 -0.18817699 C113.83555237 -0.1907442 118.01884941 -0.19660683 122.20219612 -0.21146011 C148.40578849 -0.30082292 174.61656581 0.19719408 200.625 3.75 C201.8816748 3.91846436 203.13834961 4.08692871 204.43310547 4.26049805 C245.45025372 10.00924932 291.70870466 20.92133129 318.14453125 55.83203125 C332.46538324 77.64091042 335.49615521 103.36376338 330.3125 128.75 C325.09573862 152.37692602 313.75987949 171.76801123 297 189 C296.47156494 189.5561499 295.94312988 190.1122998 295.39868164 190.68530273 C291.15503114 195.06909941 286.64607212 198.76565995 281.6875 202.3125 C280.90842285 202.8708252 280.1293457 203.42915039 279.32666016 204.00439453 C266.45046775 213.05986572 252.59924205 220.17063283 238 226 C237.29359375 226.28439941 236.5871875 226.56879883 235.859375 226.86181641 C171.59341992 252.4286137 97.53640682 256.9699252 29 256 C28.83097388 256.60045796 28.66194777 257.20091593 28.48779964 257.81956959 C26.6405502 264.19744654 24.40264293 270.31770204 21.90258789 276.46557617 C21.50202179 277.46087341 21.10145569 278.45617065 20.68875122 279.48162842 C19.3707684 282.75372422 18.04666096 286.02330555 16.72265625 289.29296875 C15.79117477 291.60319847 14.86014783 293.91361151 13.92955017 296.22419739 C11.72646358 301.69182991 9.51977184 307.15799488 7.31099361 312.62333041 C2.69205843 324.05239311 -1.91924932 335.4845314 -6.52734375 346.91796875 C-6.99850994 348.08658573 -7.46967613 349.25520271 -7.95512009 350.45923233 C-13.54048656 364.31769313 -19.05721425 378.19456742 -24.40232849 392.14744568 C-29.10039197 404.36232837 -33.98784189 416.50038088 -38.875 428.640625 C-39.54584468 430.30728934 -39.54584468 430.30728934 -40.23024178 432.00762367 C-43.94767608 441.24112788 -47.66994112 450.47268316 -51.39300537 459.70391846 C-63.13149647 488.81051658 -74.76782346 517.95194851 -86.19850922 547.1808939 C-86.59706367 548.19998309 -86.99561813 549.21907228 -87.40625 550.26904297 C-87.7985807 551.27224296 -88.19091141 552.27544294 -88.59513092 553.30904293 C-93.9450211 566.98102005 -99.35877256 580.62720113 -104.82470703 594.25317383 C-105.97593979 597.12462293 -107.12077987 599.99851942 -108.26123047 602.87426758 C-109.69518921 606.48991148 -111.13906458 610.10143756 -112.59034729 613.71016121 C-113.12646983 615.0479547 -113.659161 616.38712939 -114.18809509 617.7277813 C-114.91067305 619.55730453 -115.64739422 621.38122284 -116.38476562 623.20483398 C-117.00043396 624.74614235 -117.00043396 624.74614235 -117.62854004 626.31858826 C-119.06879844 629.13451137 -120.65165906 630.9057895 -123 633 C-123.99 632.34 -124.98 631.68 -126 631 C-125.45866074 623.56012832 -124.44492915 616.36287974 -122.96160221 609.05575752 C-122.7533776 608.0062134 -122.54515298 606.95666928 -122.33061853 605.87532079 C-121.63374739 602.37012512 -120.9286959 598.86662702 -120.22364807 595.36306763 C-119.71637095 592.82048277 -119.2095975 590.27779738 -118.70328373 587.73502052 C-117.6028237 582.21263549 -116.49809839 576.69111731 -115.39053535 571.17015266 C-113.74360104 562.9604692 -112.10328655 554.74947284 -110.4642629 546.53820688 C-107.53678835 531.87313143 -104.60275279 517.2093745 -101.66595139 502.54616431 C-99.09661926 489.71758906 -96.52951434 476.8885706 -93.96461296 464.05910873 C-93.7944513 463.20798722 -93.62428963 462.35686571 -93.44897155 461.47995264 C-92.7582389 458.02500311 -92.06751643 454.57005154 -91.37680938 451.11509689 C-84.89915063 418.71366451 -78.41492209 386.31355002 -71.92763537 353.9140441 C-66.16233398 325.12015924 -60.40243885 296.32519803 -54.6472168 267.52929688 C-53.17286133 260.15247678 -51.69849851 252.77565815 -50.22407627 245.39885139 C-50.04256478 244.49071577 -49.86105329 243.58258015 -49.67404146 242.64692526 C-44.86563653 218.59004434 -40.05278406 194.53405326 -35.23856014 170.47833622 C-34.72072955 167.89081261 -34.2029011 165.30328858 -33.68507568 162.71576394 C-33.3415594 160.99924602 -32.99804 159.28272872 -32.65451746 157.56621205 C-30.08778598 144.74049384 -27.52335121 131.9143178 -24.95999336 119.08792496 C-22.04670288 104.51066021 -19.12994452 89.93409409 -16.20860524 75.35844012 C-14.57297932 67.19719962 -12.94000473 59.03543919 -11.31081564 50.87291125 C-10.09599188 44.78798012 -8.87617105 38.70406115 -7.65434992 32.62053142 C-7.15939796 30.15207923 -6.66608548 27.68329766 -6.17453105 25.21416666 C-5.50884421 21.8716069 -4.83731264 18.5302745 -4.16423893 15.18919563 C-3.97244432 14.21880258 -3.7806497 13.24840952 -3.58304313 12.24861062 C-2.71681138 7.97873777 -1.84629145 3.97805605 0 0 Z M109 56 C105.30353356 63.86098554 102.06661531 71.83043306 98.984375 79.94921875 C93.49124773 94.30063502 87.80095458 108.57090416 82.078125 122.83203125 C81.19192767 125.04181623 80.30573793 127.25160425 79.41955566 129.46139526 C75.75982336 138.58469292 72.09654817 147.70656518 68.43066406 156.82739258 C66.15755755 162.4834843 63.88775563 168.14089272 61.62001801 173.79913902 C60.76168001 175.93877829 59.90203394 178.07789329 59.04105377 180.21647072 C57.85141832 183.17148275 56.66595257 186.12813447 55.48144531 189.08520508 C55.12626831 189.96438599 54.77109131 190.84356689 54.40515137 191.74938965 C53.926315 192.94843681 53.926315 192.94843681 53.43780518 194.17170715 C53.15841724 194.86703458 52.87902931 195.562362 52.59117508 196.27875996 C51.89172218 198.01193495 51.89172218 198.01193495 52 200 C115.46587897 200.86023029 199.48049982 200.66930588 252 160 C252.89332031 159.31421875 253.78664063 158.6284375 254.70703125 157.921875 C266.71028453 147.96525937 273.78007043 134.37506777 276 119 C277.05592476 107.54727759 273.0584985 97.92376711 266 89 C250.57792933 73.03730323 225.90261117 67.43096827 205 63 C204.28457031 62.84789062 203.56914063 62.69578125 202.83203125 62.5390625 C172.35799772 56.29100147 139.98331844 55.60164305 109 56 Z " fill="#0000B9" transform="translate(573,172)"/>
<path d="M0 0 C0.9186937 0.00142502 1.83738739 0.00285004 2.78392029 0.00431824 C3.83757782 0.00128189 4.89123535 -0.00175446 5.9768219 -0.00488281 C7.71909561 0.00583504 7.71909561 0.00583504 9.49656677 0.01676941 C10.71721832 0.01686508 11.93786987 0.01696075 13.19551086 0.01705933 C16.55237327 0.02017637 19.90894078 0.03269473 23.26574326 0.05000305 C26.06668882 0.06297573 28.86763126 0.06854439 31.66859913 0.07444191 C63.05076581 0.14553586 94.42893973 0.66439669 125.80516052 1.24723816 C127.69905239 7.19920159 128.63925167 13.12404387 129.50366211 19.30169678 C129.66236296 20.40732733 129.82106381 21.51295789 129.98457378 22.6520924 C130.51479555 26.35446412 131.03800917 30.0577919 131.56126404 33.76115417 C131.94061695 36.42023762 132.32035956 39.07926268 132.70059204 41.73822021 C133.52003819 47.47408335 134.33590634 53.21044625 135.14937019 58.94716072 C136.3350897 67.30893222 137.52646315 75.66989078 138.71917664 84.03066718 C140.66705848 97.68606162 142.61067346 111.34205978 144.55149841 124.99845886 C146.41458357 138.10776839 148.27916585 151.21686312 150.14622498 164.3256073 C150.26009072 165.125072 150.37395647 165.9245367 150.4912727 166.7482276 C151.63318164 174.76546533 152.77536126 182.78266449 153.91764157 190.79984932 C154.36937954 193.97040887 154.82110559 197.14097011 155.27282567 200.31153221 C155.49667056 201.88265909 155.72052049 203.45378525 155.94437551 205.02491068 C157.33955399 214.81717687 158.73334631 224.60963882 160.12545413 234.40234202 C160.93333315 240.08521523 161.74188973 245.767992 162.55057037 251.45075119 C162.94297602 254.20833867 163.33513402 256.9659612 163.72709477 259.72361195 C165.81520141 274.41202952 167.92214444 289.09740738 170.0757911 303.77637265 C170.39814046 305.97405602 170.71999333 308.17181153 171.04168719 310.36959094 C171.25189218 311.80532745 171.46210949 313.24106215 171.67233944 314.67679501 C171.82648482 315.72955613 171.82648482 315.72955613 171.98374425 316.80358515 C172.48871484 320.24954215 172.99560246 323.69519845 173.50653374 327.14027703 C174.06543662 330.91177515 174.61936609 334.68397494 175.17245483 338.45632935 C175.42218034 340.12442895 175.42218034 340.12442895 175.67695081 341.82622755 C177.18962634 352.20339566 177.18962634 352.20339566 176.80516052 356.24723816 C174.80516052 358.24723816 174.80516052 358.24723816 172.61985779 358.49015808 C171.71292175 358.48604919 170.80598572 358.48194031 169.87156677 358.47770691 C168.84225037 358.47657898 167.81293396 358.47545105 166.75242615 358.47428894 C165.63545349 358.46123718 164.51848083 358.44818542 163.36766052 358.43473816 C161.65159607 358.4228949 161.65159607 358.4228949 159.90086365 358.41081238 C151.20036122 358.32683526 142.50191895 358.13815997 133.80516052 357.87223816 C132.63670593 357.84154236 131.46825134 357.81084656 130.26438904 357.77922058 C129.18471863 357.74030701 128.10504822 357.70139343 126.99266052 357.66130066 C126.03746521 357.62987976 125.0822699 357.59845886 124.09812927 357.56608582 C121.80516052 357.24723816 121.80516052 357.24723816 119.80516052 355.24723816 C119.28654861 353.18058205 119.28654861 353.18058205 118.90238953 350.57649231 C118.75305843 349.58880041 118.60372734 348.60110851 118.44987106 347.58348656 C118.2941576 346.49235369 118.13844414 345.40122082 117.97801208 344.27702332 C117.80746433 343.12459452 117.63691658 341.97216572 117.46120071 340.78481483 C116.89733883 336.94059692 116.34828308 333.09442656 115.80516052 329.24723816 C115.62035629 327.94062981 115.43555206 326.63402145 115.24514771 325.28781891 C113.92313039 315.90539467 112.63943349 306.51779407 111.36100292 297.12934828 C110.81275095 293.10671048 110.26195995 289.08442026 109.71147156 285.06208801 C108.67571837 277.49125711 107.6421532 269.9201293 106.60943246 262.34888422 C105.43093886 253.70975459 104.24991712 245.07097111 103.06871367 236.43221164 C100.64477422 218.70426297 98.22390998 200.97589564 95.80516052 183.24723816 C80.2544722 182.80193462 64.70495094 182.4676612 49.14939594 182.26280689 C41.92497072 182.16512281 34.70452147 182.03217812 27.48265076 181.81388855 C21.18217226 181.62354116 14.88457234 181.50172132 8.58129853 181.45955676 C5.24493821 181.43491085 1.92327181 181.36771543 -1.41164207 181.23836708 C-15.20370482 180.23299335 -15.20370482 180.23299335 -27.573946 185.11203766 C-31.65898857 189.59733148 -34.50341403 194.58848318 -37.10662842 200.03998756 C-38.49940985 202.86500722 -40.23262396 205.35335913 -42.10499573 207.88005066 C-42.63286682 208.63350769 -43.16073792 209.38696472 -43.7046051 210.16325378 C-44.21700745 210.89221863 -44.72940979 211.62118347 -45.25733948 212.37223816 C-45.83548401 213.19659363 -46.41362854 214.0209491 -47.0092926 214.87028503 C-51.21276322 220.86011557 -55.43184996 226.83888908 -59.65602112 232.81413269 C-63.51852058 238.28052436 -67.35929527 243.76190747 -71.19483948 249.24723816 C-75.51390752 255.42407128 -79.84382213 261.59286731 -84.19483948 267.74723816 C-90.89400062 277.22450861 -97.54440582 286.73574007 -104.19483948 296.24723816 C-110.84527397 305.75873743 -117.49584514 315.26984877 -124.19483948 324.74723816 C-128.70835214 331.13362199 -133.20703167 337.53026243 -137.69483948 343.93473816 C-138.28265198 344.77262878 -138.87046448 345.61051941 -139.47608948 346.47380066 C-140.03296448 347.26915222 -140.58983948 348.06450378 -141.16358948 348.88395691 C-141.68952698 349.63338562 -142.21546448 350.38281433 -142.75733948 351.154953 C-144.0248477 352.99981467 -145.2234836 354.87172866 -146.41358948 356.76676941 C-148.19483948 359.24723816 -148.19483948 359.24723816 -151.19483948 360.24723816 C-152.18483948 359.58723816 -153.17483948 358.92723816 -154.19483948 358.24723816 C-153.67057435 351.82981407 -151.46867814 346.58896236 -148.90968323 340.71989441 C-148.46621048 339.68432907 -148.02273773 338.64876373 -147.56582642 337.58181763 C-146.09584339 334.15436019 -144.614063 330.73213448 -143.13233948 327.30973816 C-142.09051402 324.88625801 -141.04951282 322.46242337 -140.0092926 320.03825378 C-137.83485965 314.97320356 -135.65514155 309.91045966 -133.47169495 304.84928894 C-130.34908666 297.61025559 -127.24029801 290.3653426 -124.13624573 283.11833191 C-123.64538986 281.97236038 -123.154534 280.82638885 -122.64880371 279.64569092 C-121.65980496 277.3366112 -120.67084716 275.02751394 -119.68193054 272.71839905 C-118.18255594 269.21856598 -116.68193018 265.71927192 -115.18092346 262.22013855 C-108.32672388 246.23998539 -101.50252627 230.24725567 -94.69483948 214.24723816 C-86.72084889 195.50688566 -78.72038299 176.77806814 -70.69483948 158.05973816 C-70.1838974 156.86802002 -69.67295532 155.67630188 -69.14653015 154.44847107 C-64.79529719 144.30047847 -60.44218341 134.15329338 -56.08747864 124.00679016 C-48.80825785 107.04516659 -41.55713972 90.07171395 -34.3238678 73.09043884 C-32.83299589 69.59062279 -31.34156 66.09104742 -29.85011292 62.59147644 C-25.21945451 51.72242125 -20.59997069 40.84891232 -16.01124573 29.96208191 C-14.83764743 27.18246568 -13.66372362 24.40298716 -12.48970032 21.62355042 C-11.40491977 19.05079154 -10.3254457 16.47584898 -9.24610901 13.90080261 C-8.59777277 12.36512797 -7.94918857 10.82955798 -7.30030823 9.29411316 C-7.01184525 8.60103561 -6.72338226 7.90795807 -6.42617798 7.19387817 C-3.54095539 0.39887167 -3.54095539 0.39887167 0 0 Z M71.80516052 61.24723816 C68.52628274 64.96483902 65.26691383 68.69799976 62.05516052 72.47380066 C56.72648191 78.73479975 51.3315973 84.89928589 45.7353363 90.92253113 C42.83767828 94.06226933 40.1016948 97.28890304 37.43016052 100.62223816 C33.307021 105.75938667 28.8793752 110.55158412 24.3212738 115.30143738 C23.53019226 116.13505798 23.53019226 116.13505798 22.72312927 116.98551941 C22.02353088 117.71315491 22.02353088 117.71315491 21.30979919 118.45549011 C19.26478197 120.89072967 17.56911475 123.60130682 15.80516052 126.24723816 C38.57516052 126.24723816 61.34516052 126.24723816 84.80516052 126.24723816 C84.02714141 118.19542438 84.02714141 118.19542438 82.80540466 110.27848816 C82.51488976 108.69765442 82.51488976 108.69765442 82.21850586 107.08488464 C82.01120346 105.9834613 81.80390106 104.88203796 81.59031677 103.74723816 C81.37451462 102.5897406 81.15871246 101.43224304 80.93637085 100.2396698 C80.48217299 97.81225179 80.02572343 95.38525412 79.56712341 92.95866394 C78.86483241 89.23223187 78.17554413 85.50353878 77.48680115 81.77458191 C77.04292796 79.41115248 76.59829374 77.04786582 76.15281677 74.68473816 C75.9475386 73.56712097 75.74226044 72.44950378 75.53076172 71.29801941 C75.33393295 70.26934753 75.13710419 69.24067566 74.93431091 68.18083191 C74.67902367 66.82042786 74.67902367 66.82042786 74.4185791 65.43254089 C73.94525469 63.06086967 73.94525469 63.06086967 71.80516052 61.24723816 Z " fill="#D34733" transform="translate(626.1948394775391,445.7527618408203)"/>
<path d="M0 0 C1.08089401 0.00015106 2.16178802 0.00030212 3.2754364 0.00045776 C5.02398674 0.01594162 5.02398674 0.01594162 6.80786133 0.03173828 C8.00220291 0.03456818 9.19654449 0.03739807 10.42707825 0.04031372 C14.24811755 0.05152401 18.06892392 0.07663042 21.88989258 0.10205078 C24.47777982 0.11207947 27.06567073 0.12120551 29.65356445 0.12939453 C36.00325353 0.15146614 42.35280642 0.18495218 48.70239258 0.22705078 C50.88437244 5.85202661 51.61647779 11.53619814 52.44558716 17.47410583 C52.60907713 18.61240579 52.7725671 19.75070575 52.94101131 20.92349964 C53.39256871 24.07545198 53.8391013 27.22806884 54.28351402 30.38103497 C54.76491321 33.78750194 55.25280912 37.19303895 55.73991394 40.59869385 C56.58437528 46.50913855 57.42474277 52.42015371 58.26236343 58.33157158 C59.48192757 66.9383439 60.70790868 75.54419284 61.93542252 84.14983452 C63.93823957 98.19196826 65.93616316 112.23479366 67.9309082 126.27807617 C69.84900296 139.78163831 71.76888897 153.2849433 73.69165039 166.7878418 C73.86777761 168.02473312 73.86777761 168.02473312 74.04746296 169.28661215 C75.22349103 177.54525907 76.39981812 185.8038634 77.57619653 194.06246043 C78.04027389 197.32046734 78.50433635 200.57847638 78.96838941 203.83648675 C79.19820339 205.44995347 79.42802239 207.06341949 79.65784644 208.67688478 C81.09478947 218.7651146 82.53023614 228.85355565 83.96385992 238.9422577 C84.69250972 244.06986722 85.42165479 249.19740627 86.15098364 254.32491925 C86.65361772 257.85873603 87.15605186 261.39258093 87.6579783 264.92649829 C89.67175544 279.10288426 91.70024666 293.27675249 93.78939135 307.44225147 C94.07915374 309.40760031 94.36825784 311.37304618 94.65735376 313.33849317 C95.54891161 319.3989435 96.44507096 325.45862798 97.35096931 331.51695156 C97.66508278 333.64486146 97.97900279 335.77279992 98.29269409 337.90077209 C98.4369126 338.85170923 98.58113111 339.80264636 98.72971988 340.78239977 C99.44160435 345.64929123 99.95642926 350.30658565 99.70239258 355.22705078 C98.03805799 356.89138537 96.04268725 356.36297242 93.75537109 356.37231445 C92.17351768 356.38188423 92.17351768 356.38188423 90.55970764 356.39164734 C89.41183273 356.39276016 88.26395782 356.39387299 87.08129883 356.39501953 C85.91106674 356.39834793 84.74083466 356.40167633 83.53514099 356.40510559 C81.05435582 356.41017987 78.57356379 356.41251376 76.09277344 356.41235352 C72.28479839 356.41453935 68.47711315 356.43268829 64.66918945 356.45166016 C62.26489357 356.45459402 59.86059631 356.45657886 57.45629883 356.45751953 C55.73752281 356.46829781 55.73752281 356.46829781 53.98402405 356.47929382 C52.92630295 356.47621719 51.86858185 356.47314056 50.77880859 356.4699707 C49.84472672 356.47139572 48.91064484 356.47282074 47.94825745 356.47428894 C45.70239258 356.22705078 45.70239258 356.22705078 43.70239258 354.22705078 C43.13890934 351.97695065 43.13890934 351.97695065 42.68482971 349.07298279 C42.50585868 347.95068048 42.32688765 346.82837816 42.14249325 345.67206669 C41.95028981 344.40815822 41.75808638 343.14424974 41.56005859 341.84204102 C41.34569801 340.46908191 41.13084143 339.09620016 40.91554356 337.72338772 C40.16275589 332.89354154 39.43149137 328.06052167 38.70239258 323.22705078 C38.56653417 322.32804125 38.43067576 321.42903172 38.29070044 320.50277948 C36.00411333 305.3607699 33.76115848 290.21234072 31.52308345 275.06309819 C30.59470274 268.78235002 29.66386768 262.50196557 28.73329163 256.22154236 C27.16455527 245.6321697 25.59708945 235.04261 24.03076172 224.45288086 C20.71162798 202.01275145 17.38971549 179.57303371 14.06636679 157.13352811 C13.11770984 150.72791754 12.16933006 144.32226618 11.22156906 137.91652298 C7.47683781 112.60690302 3.72368512 87.29873236 -0.09399414 62 C-0.38554245 60.06633363 -0.67707306 58.13266458 -0.96858501 56.19899273 C-2.16640561 48.2563531 -3.36591989 40.31399224 -4.57525015 32.37309599 C-5.04536126 29.28199732 -5.51264865 26.19047644 -5.97923398 23.09884381 C-6.19179102 21.69512102 -6.40565887 20.29159595 -6.62097049 18.88829303 C-6.9108751 16.99845964 -7.1959191 15.10788252 -7.48069763 13.2172699 C-7.63977317 12.17233085 -7.79884871 11.1273918 -7.96274471 10.05078793 C-8.57745611 4.86722058 -8.57745611 4.86722058 -8.29760742 2.22705078 C-4.95143851 -0.0037285 -3.90166783 -0.01818959 0 0 Z " fill="#D34733" transform="translate(778.297607421875,446.77294921875)"/>
<path d="M0 0 C2.36465054 -0.00271855 4.72930023 -0.00628428 7.09394836 -0.01062012 C13.43551524 -0.01963321 19.77701609 -0.01624912 26.11858392 -0.00986195 C32.10013013 -0.00527567 38.08167063 -0.00879612 44.06321671 -0.01171634 C56.60472259 -0.01738311 69.14619895 -0.01091476 81.6877 -0.0001156 C92.44611147 0.00886046 103.20447988 0.00722765 113.96289062 -0.00195312 C126.49817954 -0.01264538 139.03344295 -0.01687991 151.56873578 -0.0107286 C158.19047354 -0.00756703 164.81218727 -0.00720201 171.43392372 -0.01380157 C177.63850954 -0.0195561 183.84301334 -0.01561316 190.04759026 -0.00401306 C192.32853687 -0.0013587 194.60949034 -0.00214469 196.89043427 -0.00653839 C199.99116323 -0.01196333 203.09162531 -0.00519772 206.19233704 0.00482178 C207.10465019 0.00036033 208.01696334 -0.00410111 208.95692235 -0.00869775 C215.16110052 0.03048529 215.16110052 0.03048529 217.3894043 2.25878906 C216.97863126 9.07598662 215.59056139 15.67186613 214.18041992 22.34301758 C213.95754807 23.41412781 213.73467621 24.48523804 213.50505066 25.58880615 C213.02347489 27.90045471 212.53997279 30.21170264 212.05473328 32.52258492 C211.28604618 36.18345393 210.52245999 39.845355 209.76013184 43.5075531 C208.27862831 50.62011587 206.79155459 57.73150603 205.30341339 64.84268188 C203.27985054 74.51357084 201.26005573 84.18523912 199.24552917 93.85801506 C198.49433305 97.4591065 197.73916951 101.0593506 196.98376465 104.65956116 C196.52179795 106.8743227 196.05999714 109.08911885 195.59838867 111.30395508 C195.38848801 112.29898544 195.17858734 113.29401581 194.96232605 114.31919861 C194.09435773 118.50060137 193.30069042 122.63668138 192.81384277 126.88096619 C192.3894043 130.25878906 192.3894043 130.25878906 191.3894043 131.25878906 C189.72323315 131.29942738 188.05552335 131.30151006 186.3894043 131.25878906 C185.65834854 128.33456602 185.40219478 125.9134459 185.5144043 122.88378906 C185.62553122 113.12314136 183.0529667 102.80865347 178.3894043 94.25878906 C177.96916992 93.45054687 177.54893555 92.64230469 177.1159668 91.80957031 C168.62854895 76.49939393 153.98006561 67.59963359 137.46655273 62.80566406 C133.3269113 61.71577257 129.15066303 60.8378554 124.9519043 60.00878906 C123.72008423 59.76370605 123.72008423 59.76370605 122.46337891 59.51367188 C106.3957939 56.57892458 89.91885585 57.08129152 73.6550293 57.05566406 C71.82466755 57.051423 71.82466755 57.051423 69.9573288 57.04709625 C63.50337006 57.03219037 57.0494332 57.02290582 50.59545898 57.01855469 C43.98487602 57.01307294 37.37449928 56.98902585 30.76398087 56.96058273 C25.62822914 56.94182558 20.49252592 56.93674391 15.35674286 56.93521881 C12.92186095 56.93222283 10.48697926 56.92429993 8.05213165 56.91103363 C-29.47841004 56.72108005 -66.57049958 64.71018741 -94.6105957 91.25878906 C-95.12847656 91.74105957 -95.64635742 92.22333008 -96.17993164 92.72021484 C-115.63767407 110.95658383 -128.5150178 134.40373027 -137.6105957 159.25878906 C-137.85519531 159.92539551 -138.09979492 160.59200195 -138.35180664 161.27880859 C-148.74966755 190.04532237 -153.74938255 220.12087179 -156.8605957 250.44628906 C-156.94367981 251.25301056 -157.02676392 252.05973206 -157.11236572 252.89089966 C-161.23389523 293.47796961 -165.55850486 346.33649222 -139.30297852 380.984375 C-125.52035555 397.78838435 -107.90098813 406.25916856 -86.4855957 408.50878906 C-55.89026568 411.30322933 -26.00145066 403.1606699 -1.6105957 384.25878906 C-0.75594727 383.60652344 0.09870117 382.95425781 0.97924805 382.28222656 C16.87659942 369.73768817 29.08987476 354.81338457 40.3894043 338.13378906 C40.92235107 337.35455078 41.45529785 336.5753125 42.00439453 335.77246094 C46.06769297 329.66143482 49.60803255 323.31823775 53.1237793 316.88037109 C53.63150879 315.95378189 54.13923828 315.02719269 54.66235352 314.07252502 C55.90618085 311.80208286 57.14848772 309.53082301 58.3894043 307.25878906 C57.82949106 307.25640071 57.26957783 307.25401236 56.69269753 307.25155163 C43.08084839 307.19246508 29.46917944 307.11676596 15.85752296 307.02307415 C9.27506347 306.978271 2.69266729 306.93903695 -3.88989258 306.91235352 C-10.23772649 306.88641962 -16.58531798 306.84608807 -22.93300247 306.7956028 C-25.3595644 306.77886677 -27.78616832 306.76739466 -30.21278 306.76117516 C-33.60134284 306.75160716 -36.98927596 306.72363575 -40.37768555 306.69116211 C-41.89574547 306.69331474 -41.89574547 306.69331474 -43.44447327 306.69551086 C-44.36436539 306.68297272 -45.28425751 306.67043457 -46.23202515 306.65751648 C-47.03398504 306.65290751 -47.83594494 306.64829855 -48.66220665 306.64354992 C-49.30517504 306.51657884 -49.94814342 306.38960775 -50.6105957 306.25878906 C-52.6105957 303.25878906 -52.6105957 303.25878906 -52.54858398 301.39794922 C-50.44381195 291.89205608 -47.57767006 282.58538365 -44.77319336 273.26660156 C-44.08173202 270.96204943 -43.40391742 268.65381472 -42.7277832 266.34472656 C-42.51531952 265.65180511 -42.30285583 264.95888367 -42.08395386 264.2449646 C-40.68769976 259.43220975 -40.51234237 255.26421257 -40.6105957 250.25878906 C-38.84825971 248.49645307 -36.51708188 249.13259838 -34.16909218 249.12325287 C-33.38207106 249.12527962 -32.59504993 249.12730637 -31.78417969 249.12939453 C-30.95415625 249.12766487 -30.1241328 249.12593521 -29.26895714 249.12415314 C-26.46484849 249.11974879 -23.66079906 249.12276874 -20.85668945 249.12597656 C-18.85381553 249.12495973 -16.85094175 249.12361958 -14.84806824 249.12197876 C-9.38810433 249.11924789 -3.92816832 249.12380089 1.53179169 249.13021851 C4.93942856 249.13377604 8.34706121 249.13540586 11.75469971 249.13647461 C63.30261712 249.1564773 114.84541584 249.65888523 166.3894043 250.25878906 C167.58763937 254.45261184 167.01056721 256.30638551 165.3894043 260.25878906 C164.91808343 262.20066885 164.49516766 264.15464217 164.10900879 266.11523438 C163.8746408 267.29268691 163.64027281 268.47013945 163.39880276 269.68327236 C163.02193372 271.615575 163.02193372 271.615575 162.63745117 273.58691406 C162.3639423 274.97077262 162.09000735 276.35454703 161.81568241 277.73824406 C161.06560254 281.52820825 160.32162556 285.31934823 159.57869267 289.11071897 C158.78173832 293.17234813 157.97925638 297.23288534 157.17747498 301.29356384 C155.61789138 309.19691672 154.06359349 317.10130031 152.51106054 325.00604087 C151.24963079 331.42779057 149.98585352 337.84907445 148.7204895 344.27005005 C148.54052947 345.18324428 148.36056943 346.09643851 148.17515606 347.0373053 C147.81041803 348.88810219 147.44567732 350.73889855 147.08093393 352.58969438 C137.23841108 402.53840479 127.46145508 452.49994862 117.7131958 502.46713257 C109.39776522 545.08978271 100.99062452 587.69282928 92.3894043 630.25878906 C89.78358058 631.18944039 88.74742206 631.40796313 86.1394043 630.32128906 C85.5619043 629.97066406 84.9844043 629.62003906 84.3894043 629.25878906 C84.25966321 598.19478178 84.35977295 567.13442577 84.61206055 536.07128906 C84.61748013 535.40233667 84.62289972 534.73338428 84.62848353 534.0441606 C84.74483058 519.71158954 84.86790796 505.37908296 84.997962 491.04662991 C85.0569614 484.51970567 85.11438969 477.99276867 85.1706543 471.46582031 C85.18156664 470.20014536 85.19247898 468.93447041 85.203722 467.63044167 C85.42402469 441.50642918 85.44406144 415.38353532 85.3894043 389.25878906 C84.83891418 390.01818283 84.28842407 390.7775766 83.72125244 391.5599823 C82.99976013 392.55395523 82.27826782 393.54792816 81.53491211 394.57202148 C80.819422 395.55829025 80.10393188 396.54455902 79.36676025 397.56071472 C75.89999417 402.29106819 72.15659686 406.76690603 68.3894043 411.25878906 C67.9567627 411.78311523 67.52412109 412.30744141 67.07836914 412.84765625 C55.74738375 426.57456736 43.46056165 439.32437322 29.3894043 450.25878906 C28.61983398 450.9071875 27.85026367 451.55558594 27.05737305 452.22363281 C-1.19363897 475.88326974 -37.50694245 489.70277156 -74.2980957 489.69628906 C-75.06183502 489.6976889 -75.82557434 489.69908875 -76.61245728 489.70053101 C-90.72283542 489.67939641 -103.9610779 487.96612925 -117.6105957 484.25878906 C-118.38902832 484.05060547 -119.16746094 483.84242188 -119.96948242 483.62792969 C-132.20806169 480.2701308 -144.08982877 475.47706076 -155.58325195 470.11816406 C-157.7139363 469.17023443 -157.7139363 469.17023443 -160.4543457 468.41503906 C-164.0595743 467.09431175 -166.96764343 465.24734276 -170.0480957 463.00878906 C-170.6479126 462.57405273 -171.24772949 462.13931641 -171.86572266 461.69140625 C-203.7538528 437.99104797 -221.69118415 403.71939957 -230.8605957 365.69628906 C-231.21166382 364.29286255 -231.21166382 364.29286255 -231.56982422 362.86108398 C-236.38969552 341.77349942 -237.16687382 319.98923984 -237.0480957 298.44628906 C-237.04505432 297.26078461 -237.04201294 296.07528015 -237.03887939 294.85385132 C-236.9595181 273.7664984 -235.68814829 253.11496826 -232.6105957 232.25878906 C-232.4993335 231.49646973 -232.38807129 230.73415039 -232.2734375 229.94873047 C-224.62522143 177.85847079 -212.34297561 124.98739788 -181.6105957 81.25878906 C-181.12252441 80.56188965 -180.63445312 79.86499023 -180.1315918 79.14697266 C-160.80155584 51.91232155 -135.6508256 32.35771193 -105.6105957 18.25878906 C-104.5071582 17.72511719 -103.4037207 17.19144531 -102.2668457 16.64160156 C-70.57693831 2.07933459 -34.3260337 -0.06748591 0 0 Z M-46.4855957 7.50878906 C-47.38286377 7.63592285 -48.28013184 7.76305664 -49.20458984 7.89404297 C-99.15042887 15.35357104 -143.67143002 38.81736367 -174.0715332 79.71582031 C-210.39191852 129.76639038 -222.38852835 191.02769139 -229.6105957 251.25878906 C-229.81410645 252.93328125 -229.81410645 252.93328125 -230.02172852 254.64160156 C-231.71187251 269.22921059 -231.80820088 283.84177379 -231.8605957 298.50878906 C-231.86604401 299.43055939 -231.87149231 300.35232971 -231.87710571 301.30203247 C-231.95299764 318.54141152 -230.93355717 335.70654689 -227.8605957 352.69628906 C-227.69140625 353.63891602 -227.5222168 354.58154297 -227.34790039 355.55273438 C-219.67654518 396.5256742 -201.418102 433.03242667 -167.62231445 458.39160156 C-163.77296102 460.77810084 -159.77355143 462.49488847 -155.6105957 464.25878906 C-153.96151937 464.98520513 -152.31309398 465.71310051 -150.6652832 466.44238281 C-110.12871486 484.16063583 -65.82418867 491.86261577 -23.38452148 475.39501953 C0.65965536 465.63563865 22.86999356 451.48765452 40.91674805 432.73144531 C42.3894043 431.25878906 42.3894043 431.25878906 45.3894043 428.82128906 C48.40795639 426.24294248 50.86551442 423.54454592 53.4284668 420.52832031 C55.55990121 418.06146096 57.78436959 415.69927106 60.0144043 413.32128906 C67.69432877 404.89324409 74.71466065 395.77539765 81.0769043 386.31347656 C81.48223389 385.71067871 81.88756348 385.10788086 82.30517578 384.48681641 C83.37957728 382.86778004 84.43407101 381.23558234 85.48706055 379.60253906 C87.3894043 377.25878906 87.3894043 377.25878906 91.3894043 376.25878906 C90.7294043 453.47878906 90.0694043 530.69878906 89.3894043 610.25878906 C91.99776547 607.65042789 92.07260172 605.80735102 92.78369141 602.19364929 C92.90994784 601.56315603 93.03620427 600.93266277 93.16628665 600.28306365 C93.59047829 598.15486109 94.00354004 596.02464739 94.41674805 593.89428711 C94.71954001 592.36318423 95.02300833 590.83221498 95.3270998 589.30136967 C96.16030735 585.09651225 96.98383339 580.88980807 97.80577683 576.6827364 C98.68526847 572.1897708 99.57353029 567.69853911 100.46073914 563.20709229 C102.1823644 554.48409034 103.89575157 545.75948976 105.60640103 537.03432953 C107.5846763 526.94603476 109.57172514 516.85947422 111.55905426 506.77295983 C116.51739686 481.6044896 121.45654024 456.4322638 126.3894043 431.25878906 C126.65463095 429.90533575 126.65463095 429.90533575 126.92521572 428.52453995 C132.57297896 399.70327079 138.21643995 370.88114916 143.83391356 342.05395901 C144.70176972 337.60055886 145.56996835 333.14722545 146.43814468 328.69388771 C146.90788705 326.2839935 147.37748244 323.87407065 147.84692001 321.46411705 C150.15754355 309.60487706 152.48149194 297.74874051 154.86450195 285.90380859 C155.05695527 284.94659314 155.24940859 283.98937769 155.44769382 283.00315571 C156.33423469 278.59794902 157.22465511 274.19358163 158.12174988 269.79051208 C158.42690914 268.28198022 158.73203149 266.7734409 159.03710938 265.26489258 C159.30026443 263.97357925 159.56341949 262.68226593 159.83454895 261.3518219 C160.47768941 258.2903794 160.47768941 258.2903794 160.3894043 255.25878906 C139.52458834 255.12726123 118.6597658 254.99682647 97.79493523 254.86763763 C88.10360268 254.80760723 78.41227247 254.74724009 68.72094727 254.68603516 C60.25845707 254.63259175 51.79596295 254.57982603 43.33346379 254.52782202 C38.86678516 254.50035096 34.40010896 254.47257607 29.93343735 254.44398499 C8.75174094 254.30864383 -12.42841943 254.22439827 -33.6105957 254.25878906 C-34.10996512 255.88618391 -34.60929027 257.51359233 -35.1085968 259.14100647 C-35.38666326 260.04726808 -35.66472971 260.95352968 -35.95122242 261.88725376 C-38.71631166 270.90841896 -41.43063997 279.94363005 -44.0480957 289.00878906 C-44.30671387 289.8946167 -44.56533203 290.78044434 -44.83178711 291.69311523 C-45.06687988 292.51400635 -45.30197266 293.33489746 -45.54418945 294.18066406 C-45.75100342 294.89834961 -45.95781738 295.61603516 -46.17089844 296.35546875 C-46.72313955 298.42038353 -46.72313955 298.42038353 -46.6105957 301.25878906 C-9.3205957 301.25878906 27.9694043 301.25878906 66.3894043 301.25878906 C63.74511921 307.86950178 61.1758086 313.88666603 57.7019043 320.00878906 C57.26475098 320.78464355 56.82759766 321.56049805 56.37719727 322.35986328 C47.05734076 338.74623911 36.42016555 354.23317692 23.49487305 368.00097656 C21.8258783 369.79073345 20.27674762 371.58946963 18.7644043 373.50878906 C15.60361985 377.16864474 12.12151039 380.19313048 8.3894043 383.25878906 C7.4509668 384.03480469 6.5125293 384.81082031 5.5456543 385.61035156 C-20.22960408 406.43917243 -52.89356026 417.08334405 -86.03198242 414.03613281 C-107.72743993 411.5798801 -127.90238743 403.74456239 -141.98168945 386.32519531 C-160.53448348 360.76426324 -164.82944825 329.06753764 -164.8605957 298.19628906 C-164.86160278 297.49136322 -164.86260986 296.78643738 -164.86364746 296.06015015 C-164.84750723 279.03244504 -163.4653634 262.17528406 -161.6105957 245.25878906 C-161.53798523 244.59365295 -161.46537476 243.92851685 -161.39056396 243.2432251 C-157.0049493 203.51970048 -148.8261851 163.65802023 -129.6105957 128.25878906 C-129.04727539 127.2159375 -128.48395508 126.17308594 -127.90356445 125.09863281 C-110.45001716 94.07464593 -82.83430812 68.57123332 -48.12182617 58.53955078 C-43.87463014 57.37779696 -39.61275435 56.29097554 -35.3371582 55.23925781 C-31.8367769 54.65294212 -31.8367769 54.65294212 -30.6105957 53.25878906 C-23.20646553 52.01355462 -15.64975159 52.10514531 -8.16625977 52.09765625 C-6.96143448 52.09269135 -5.75660919 52.08772644 -4.51527405 52.08261108 C-1.23556222 52.07058425 2.04411415 52.06306476 5.32384396 52.05860043 C7.38544667 52.05564735 9.4470441 52.05153841 11.5086441 52.04709625 C17.99490921 52.03344686 24.48116191 52.02377031 30.96744037 52.01989436 C38.38670716 52.01543346 45.8057879 51.99796696 53.22499824 51.96889377 C59.00299423 51.94706009 64.78093877 51.93717854 70.55897546 51.93585324 C73.98909473 51.93481963 77.41903865 51.92923006 80.84911346 51.91103363 C113.36822204 51.76429226 148.16450671 53.71598219 173.3269043 77.03613281 C181.24064916 85.56439196 186.63941344 97.00882646 189.3894043 108.25878906 C191.20681633 105.53267101 191.75934791 104.30031324 192.38919067 101.23571777 C192.56022308 100.41975632 192.73125549 99.60379486 192.9074707 98.7631073 C193.17720703 97.42582329 193.17720703 97.42582329 193.45239258 96.06152344 C193.74543777 94.64895012 193.74543777 94.64895012 194.04440308 93.20783997 C194.68930559 90.09070021 195.32465296 86.97169691 195.9597168 83.85253906 C196.40477032 81.68914821 196.85032341 79.52586007 197.2963562 77.3626709 C198.23005564 72.82740544 199.15932741 68.29126316 200.08520508 63.75439453 C201.27354841 57.93204134 202.47028126 52.11145392 203.67000008 46.29143524 C204.59034822 41.82421537 205.5075416 37.35635278 206.4236412 32.88825989 C206.86394492 30.74146136 207.30493539 28.59480356 207.74661636 26.44828796 C208.36249864 23.45148467 208.97444309 20.45390512 209.58520508 17.45605469 C209.76907776 16.56453201 209.95295044 15.67300934 210.14239502 14.75447083 C210.30778778 13.93850937 210.47318054 13.12254791 210.64358521 12.28186035 C210.78847445 11.57321083 210.93336369 10.86456131 211.08264351 10.13443756 C211.47010669 8.08210628 211.47010669 8.08210628 211.3894043 5.25878906 C182.81138347 5.23591116 154.23336373 5.21824584 125.65533553 5.20772373 C122.27128161 5.20647322 118.88722772 5.20517888 115.50317383 5.20385742 C114.82955048 5.20359511 114.15592714 5.2033328 113.46189097 5.20306254 C102.59546867 5.19872693 91.72905173 5.19085112 80.8626326 5.18163627 C69.68897413 5.17224084 58.51531748 5.16679577 47.34165502 5.16470057 C41.07559131 5.16340316 34.80953972 5.16037919 28.54347992 5.15305901 C22.63054402 5.14620814 16.71762508 5.14419031 10.80468559 5.14568138 C8.64903356 5.14540909 6.49338088 5.14345827 4.33773232 5.13958359 C-21.14368813 5.09141716 -21.14368813 5.09141716 -46.4855957 7.50878906 Z " fill="#000000" transform="translate(335.610595703125,171.7412109375)"/>
<path d="M0 0 C19.54370303 -0.04709258 39.08739427 -0.08216874 58.63114262 -0.10362434 C67.70927408 -0.11385922 76.78736994 -0.12776688 85.86547852 -0.15087891 C93.79437982 -0.17105523 101.7232553 -0.18377269 109.65218157 -0.18817699 C113.83555237 -0.1907442 118.01884941 -0.19660683 122.20219612 -0.21146011 C148.40578849 -0.30082292 174.61656581 0.19719408 200.625 3.75 C201.8816748 3.91846436 203.13834961 4.08692871 204.43310547 4.26049805 C245.45025372 10.00924932 291.70870466 20.92133129 318.14453125 55.83203125 C332.46538324 77.64091042 335.49615521 103.36376338 330.3125 128.75 C325.09573862 152.37692602 313.75987949 171.76801123 297 189 C296.47156494 189.5561499 295.94312988 190.1122998 295.39868164 190.68530273 C291.15503114 195.06909941 286.64607212 198.76565995 281.6875 202.3125 C280.90842285 202.8708252 280.1293457 203.42915039 279.32666016 204.00439453 C266.45046775 213.05986572 252.59924205 220.17063283 238 226 C237.29359375 226.28439941 236.5871875 226.56879883 235.859375 226.86181641 C171.59341992 252.4286137 97.53640682 256.9699252 29 256 C28.83097388 256.60045796 28.66194777 257.20091593 28.48779964 257.81956959 C26.6405502 264.19744654 24.40264293 270.31770204 21.90258789 276.46557617 C21.50202179 277.46087341 21.10145569 278.45617065 20.68875122 279.48162842 C19.3707684 282.75372422 18.04666096 286.02330555 16.72265625 289.29296875 C15.79117477 291.60319847 14.86014783 293.91361151 13.92955017 296.22419739 C11.72646358 301.69182991 9.51977184 307.15799488 7.31099361 312.62333041 C2.69205843 324.05239311 -1.91924932 335.4845314 -6.52734375 346.91796875 C-6.99850994 348.08658573 -7.46967613 349.25520271 -7.95512009 350.45923233 C-13.54048656 364.31769313 -19.05721425 378.19456742 -24.40232849 392.14744568 C-29.10039197 404.36232837 -33.98784189 416.50038088 -38.875 428.640625 C-39.54584468 430.30728934 -39.54584468 430.30728934 -40.23024178 432.00762367 C-43.94767608 441.24112788 -47.66994112 450.47268316 -51.39300537 459.70391846 C-63.13149647 488.81051658 -74.76782346 517.95194851 -86.19850922 547.1808939 C-86.59706367 548.19998309 -86.99561813 549.21907228 -87.40625 550.26904297 C-87.7985807 551.27224296 -88.19091141 552.27544294 -88.59513092 553.30904293 C-93.9450211 566.98102005 -99.35877256 580.62720113 -104.82470703 594.25317383 C-105.97593979 597.12462293 -107.12077987 599.99851942 -108.26123047 602.87426758 C-109.69518921 606.48991148 -111.13906458 610.10143756 -112.59034729 613.71016121 C-113.12646983 615.0479547 -113.659161 616.38712939 -114.18809509 617.7277813 C-114.91067305 619.55730453 -115.64739422 621.38122284 -116.38476562 623.20483398 C-117.00043396 624.74614235 -117.00043396 624.74614235 -117.62854004 626.31858826 C-119.06879844 629.13451137 -120.65165906 630.9057895 -123 633 C-123.99 632.34 -124.98 631.68 -126 631 C-125.45866074 623.56012832 -124.44492915 616.36287974 -122.96160221 609.05575752 C-122.7533776 608.0062134 -122.54515298 606.95666928 -122.33061853 605.87532079 C-121.63374739 602.37012512 -120.9286959 598.86662702 -120.22364807 595.36306763 C-119.71637095 592.82048277 -119.2095975 590.27779738 -118.70328373 587.73502052 C-117.6028237 582.21263549 -116.49809839 576.69111731 -115.39053535 571.17015266 C-113.74360104 562.9604692 -112.10328655 554.74947284 -110.4642629 546.53820688 C-107.53678835 531.87313143 -104.60275279 517.2093745 -101.66595139 502.54616431 C-99.09661926 489.71758906 -96.52951434 476.8885706 -93.96461296 464.05910873 C-93.7944513 463.20798722 -93.62428963 462.35686571 -93.44897155 461.47995264 C-92.7582389 458.02500311 -92.06751643 454.57005154 -91.37680938 451.11509689 C-84.89915063 418.71366451 -78.41492209 386.31355002 -71.92763537 353.9140441 C-66.16233398 325.12015924 -60.40243885 296.32519803 -54.6472168 267.52929688 C-53.17286133 260.15247678 -51.69849851 252.77565815 -50.22407627 245.39885139 C-50.04256478 244.49071577 -49.86105329 243.58258015 -49.67404146 242.64692526 C-44.86563653 218.59004434 -40.05278406 194.53405326 -35.23856014 170.47833622 C-34.72072955 167.89081261 -34.2029011 165.30328858 -33.68507568 162.71576394 C-33.3415594 160.99924602 -32.99804 159.28272872 -32.65451746 157.56621205 C-30.08778598 144.74049384 -27.52335121 131.9143178 -24.95999336 119.08792496 C-22.04670288 104.51066021 -19.12994452 89.93409409 -16.20860524 75.35844012 C-14.57297932 67.19719962 -12.94000473 59.03543919 -11.31081564 50.87291125 C-10.09599188 44.78798012 -8.87617105 38.70406115 -7.65434992 32.62053142 C-7.15939796 30.15207923 -6.66608548 27.68329766 -6.17453105 25.21416666 C-5.50884421 21.8716069 -4.83731264 18.5302745 -4.16423893 15.18919563 C-3.97244432 14.21880258 -3.7806497 13.24840952 -3.58304313 12.24861062 C-2.71681138 7.97873777 -1.84629145 3.97805605 0 0 Z M4 5 C0.83071002 16.6808846 -1.39805473 28.56595486 -3.76457214 40.42845154 C-4.24539579 42.82767753 -4.72646924 45.22685348 -5.20777017 47.62598377 C-6.25128971 52.83061745 -7.29302599 58.03560325 -8.33316422 63.24091339 C-9.87984759 70.98118084 -11.42982836 78.72078544 -12.98042693 86.46026938 C-15.91051731 101.08584789 -18.83670052 115.71220642 -21.7616429 130.3388152 C-24.01944304 141.62918983 -26.27824239 152.91936413 -28.53774452 164.20939827 C-28.86252831 165.83226688 -29.18731158 167.45513559 -29.51209432 169.07800441 C-29.67331568 169.88359187 -29.83453704 170.68917933 -30.0006439 171.51917853 C-30.16216055 172.32624162 -30.32367719 173.13330471 -30.49008828 173.96482426 C-30.65187707 174.77324418 -30.81366585 175.58166411 -30.98035732 176.41458161 C-35.52852474 199.14084247 -40.0754837 221.86734485 -44.61995983 244.59434414 C-44.79117357 245.45058481 -44.96238732 246.30682547 -45.13878935 247.18901283 C-46.00654501 251.52867999 -46.87428991 255.86834931 -47.74203106 260.20801937 C-47.91436504 261.06988031 -48.08669902 261.93174125 -48.26425525 262.81971919 C-48.61275525 264.56260631 -48.96125464 266.30549355 -49.3097534 268.04838092 C-54.73743568 295.19276782 -60.16924168 322.3363267 -65.60424805 349.47924805 C-71.71125955 379.97825533 -77.81506168 410.4779024 -83.91418821 440.97848755 C-84.56401625 444.22809776 -85.21385578 447.47770567 -85.86370277 450.72731209 C-86.02370873 451.52744425 -86.18371468 452.32757641 -86.3485693 453.151955 C-88.76658451 465.24322707 -91.18713382 477.33399008 -93.60896873 489.4244976 C-96.36110328 503.16396757 -99.10991302 516.90409778 -101.85423537 530.64513039 C-103.39089836 538.33879588 -104.93023362 546.03191544 -106.47337241 553.72428473 C-107.62340633 559.45860416 -108.76844653 565.19391304 -109.91149703 570.92962886 C-110.37607466 573.25673271 -110.84229563 575.58350918 -111.31027665 577.909931 C-111.94352574 581.05915973 -112.57090538 584.20950139 -113.19676495 587.36020565 C-113.38201147 588.27416077 -113.567258 589.18811589 -113.75811806 590.12976661 C-114.548606 594.13954455 -115.24418153 597.88883238 -115 602 C-112.97500806 599.97500806 -112.37553543 598.80497799 -111.34237671 596.19772339 C-111.02414255 595.40205491 -110.70590839 594.60638643 -110.37803078 593.78660679 C-110.03333433 592.90940448 -109.68863789 592.03220217 -109.33349609 591.12841797 C-108.96449377 590.20147346 -108.59549145 589.27452894 -108.21530724 588.3194952 C-106.97978729 585.21231284 -105.75167283 582.10225584 -104.5234375 578.9921875 C-103.65080621 576.79373064 -102.77768839 574.59546684 -101.90411377 572.39738464 C-100.03447891 567.69032654 -98.1680088 562.98203082 -96.30401611 558.2727356 C-93.35804467 550.83008962 -90.40515706 543.39020109 -87.45068359 535.95092773 C-86.45667591 533.44786852 -85.46269672 530.94479799 -84.46871948 528.44172668 C-84.09970597 527.51249831 -84.09970597 527.51249831 -83.72323763 526.56449765 C-81.97677276 522.16644222 -80.23126454 517.76800784 -78.4861145 513.36943054 C-70.55100062 493.37072293 -62.57184767 473.38993854 -54.56889343 453.41830063 C-51.70030564 446.25878379 -48.83407097 439.0983248 -45.96875 431.9375 C-45.65151726 431.14469824 -45.33428452 430.35189648 -45.00743866 429.53507042 C-35.16551014 404.93482045 -25.38239971 380.31108079 -15.5984621 355.68772221 C-8.37403748 337.50662782 -1.14439887 319.32790722 6.15357208 301.1761837 C7.1046908 298.81033261 8.05521692 296.44424431 9.0055542 294.07807922 C11.60939984 287.59585415 14.2146455 281.11424594 16.83265209 274.63772488 C17.61424478 272.70210685 18.3935762 270.76559748 19.17189026 268.82865906 C20.1039321 266.50955094 21.0398198 264.19198314 21.98033142 261.876297 C22.38296707 260.87152817 22.78560272 259.86675934 23.20043945 258.83154297 C23.55072708 257.96399384 23.90101471 257.0964447 24.26191711 256.2026062 C25.15886546 253.91307303 25.15886546 253.91307303 25 251 C26.28422852 250.98541748 27.56845703 250.97083496 28.89160156 250.95581055 C80.61467011 250.3261263 132.32386113 248.21953149 183 237 C183.98500488 236.78263184 184.97000977 236.56526367 185.98486328 236.34130859 C221.84465521 228.25981602 259.08922149 215.81925702 287 191 C287.89847656 190.24460937 288.79695313 189.48921875 289.72265625 188.7109375 C311.60989871 169.80971827 323.78865047 143.53160548 327 115 C328.19350616 90.41054012 323.34908159 69.9421661 307 51 C306.46761719 50.38253906 305.93523437 49.76507813 305.38671875 49.12890625 C288.47900604 30.96255487 261.48274303 21.7226087 238 16 C237.13858398 15.78988281 236.27716797 15.57976562 235.38964844 15.36328125 C222.67314851 12.3388164 209.9018224 10.31433991 196.9375 8.75 C196.25315887 8.66700653 195.56881775 8.58401306 194.86373901 8.49850464 C165.78026029 5.01866569 136.45764713 4.83819375 107.20300651 4.89860606 C103.55296776 4.90501474 99.90292742 4.90545681 96.25288391 4.90663147 C89.39376888 4.90969467 82.5346705 4.9178377 75.67556268 4.92798096 C67.84432808 4.93930131 60.01309253 4.94469194 52.18185174 4.94967639 C36.12122485 4.9600268 20.06061496 4.97766948 4 5 Z " fill="#000000" transform="translate(573,172)"/>
<path d="M0 0 C0.9186937 0.00142502 1.83738739 0.00285004 2.78392029 0.00431824 C3.83757782 0.00128189 4.89123535 -0.00175446 5.9768219 -0.00488281 C7.71909561 0.00583504 7.71909561 0.00583504 9.49656677 0.01676941 C10.71721832 0.01686508 11.93786987 0.01696075 13.19551086 0.01705933 C16.55237327 0.02017637 19.90894078 0.03269473 23.26574326 0.05000305 C26.06668882 0.06297573 28.86763126 0.06854439 31.66859913 0.07444191 C63.05076581 0.14553586 94.42893973 0.66439669 125.80516052 1.24723816 C127.69905239 7.19920159 128.63925167 13.12404387 129.50366211 19.30169678 C129.66236296 20.40732733 129.82106381 21.51295789 129.98457378 22.6520924 C130.51479555 26.35446412 131.03800917 30.0577919 131.56126404 33.76115417 C131.94061695 36.42023762 132.32035956 39.07926268 132.70059204 41.73822021 C133.52003819 47.47408335 134.33590634 53.21044625 135.14937019 58.94716072 C136.3350897 67.30893222 137.52646315 75.66989078 138.71917664 84.03066718 C140.66705848 97.68606162 142.61067346 111.34205978 144.55149841 124.99845886 C146.41458357 138.10776839 148.27916585 151.21686312 150.14622498 164.3256073 C150.26009072 165.125072 150.37395647 165.9245367 150.4912727 166.7482276 C151.63318164 174.76546533 152.77536126 182.78266449 153.91764157 190.79984932 C154.36937954 193.97040887 154.82110559 197.14097011 155.27282567 200.31153221 C155.49667056 201.88265909 155.72052049 203.45378525 155.94437551 205.02491068 C157.33955399 214.81717687 158.73334631 224.60963882 160.12545413 234.40234202 C160.93333315 240.08521523 161.74188973 245.767992 162.55057037 251.45075119 C162.94297602 254.20833867 163.33513402 256.9659612 163.72709477 259.72361195 C165.81520141 274.41202952 167.92214444 289.09740738 170.0757911 303.77637265 C170.39814046 305.97405602 170.71999333 308.17181153 171.04168719 310.36959094 C171.25189218 311.80532745 171.46210949 313.24106215 171.67233944 314.67679501 C171.82648482 315.72955613 171.82648482 315.72955613 171.98374425 316.80358515 C172.48871484 320.24954215 172.99560246 323.69519845 173.50653374 327.14027703 C174.06543662 330.91177515 174.61936609 334.68397494 175.17245483 338.45632935 C175.42218034 340.12442895 175.42218034 340.12442895 175.67695081 341.82622755 C177.18962634 352.20339566 177.18962634 352.20339566 176.80516052 356.24723816 C174.80516052 358.24723816 174.80516052 358.24723816 172.61985779 358.49015808 C171.71292175 358.48604919 170.80598572 358.48194031 169.87156677 358.47770691 C168.84225037 358.47657898 167.81293396 358.47545105 166.75242615 358.47428894 C165.63545349 358.46123718 164.51848083 358.44818542 163.36766052 358.43473816 C161.65159607 358.4228949 161.65159607 358.4228949 159.90086365 358.41081238 C151.20036122 358.32683526 142.50191895 358.13815997 133.80516052 357.87223816 C132.63670593 357.84154236 131.46825134 357.81084656 130.26438904 357.77922058 C129.18471863 357.74030701 128.10504822 357.70139343 126.99266052 357.66130066 C126.03746521 357.62987976 125.0822699 357.59845886 124.09812927 357.56608582 C121.80516052 357.24723816 121.80516052 357.24723816 119.80516052 355.24723816 C119.28654861 353.18058205 119.28654861 353.18058205 118.90238953 350.57649231 C118.75305843 349.58880041 118.60372734 348.60110851 118.44987106 347.58348656 C118.2941576 346.49235369 118.13844414 345.40122082 117.97801208 344.27702332 C117.80746433 343.12459452 117.63691658 341.97216572 117.46120071 340.78481483 C116.89733883 336.94059692 116.34828308 333.09442656 115.80516052 329.24723816 C115.62035629 327.94062981 115.43555206 326.63402145 115.24514771 325.28781891 C113.92313039 315.90539467 112.63943349 306.51779407 111.36100292 297.12934828 C110.81275095 293.10671048 110.26195995 289.08442026 109.71147156 285.06208801 C108.67571837 277.49125711 107.6421532 269.9201293 106.60943246 262.34888422 C105.43093886 253.70975459 104.24991712 245.07097111 103.06871367 236.43221164 C100.64477422 218.70426297 98.22390998 200.97589564 95.80516052 183.24723816 C80.2544722 182.80193462 64.70495094 182.4676612 49.14939594 182.26280689 C41.92497072 182.16512281 34.70452147 182.03217812 27.48265076 181.81388855 C21.18217226 181.62354116 14.88457234 181.50172132 8.58129853 181.45955676 C5.24493821 181.43491085 1.92327181 181.36771543 -1.41164207 181.23836708 C-15.20370482 180.23299335 -15.20370482 180.23299335 -27.573946 185.11203766 C-31.65898857 189.59733148 -34.50341403 194.58848318 -37.10662842 200.03998756 C-38.49940985 202.86500722 -40.23262396 205.35335913 -42.10499573 207.88005066 C-42.63286682 208.63350769 -43.16073792 209.38696472 -43.7046051 210.16325378 C-44.21700745 210.89221863 -44.72940979 211.62118347 -45.25733948 212.37223816 C-45.83548401 213.19659363 -46.41362854 214.0209491 -47.0092926 214.87028503 C-51.21276322 220.86011557 -55.43184996 226.83888908 -59.65602112 232.81413269 C-63.51852058 238.28052436 -67.35929527 243.76190747 -71.19483948 249.24723816 C-75.51390752 255.42407128 -79.84382213 261.59286731 -84.19483948 267.74723816 C-90.89400062 277.22450861 -97.54440582 286.73574007 -104.19483948 296.24723816 C-110.84527397 305.75873743 -117.49584514 315.26984877 -124.19483948 324.74723816 C-128.70835214 331.13362199 -133.20703167 337.53026243 -137.69483948 343.93473816 C-138.28265198 344.77262878 -138.87046448 345.61051941 -139.47608948 346.47380066 C-140.03296448 347.26915222 -140.58983948 348.06450378 -141.16358948 348.88395691 C-141.68952698 349.63338562 -142.21546448 350.38281433 -142.75733948 351.154953 C-144.0248477 352.99981467 -145.2234836 354.87172866 -146.41358948 356.76676941 C-148.19483948 359.24723816 -148.19483948 359.24723816 -151.19483948 360.24723816 C-152.18483948 359.58723816 -153.17483948 358.92723816 -154.19483948 358.24723816 C-153.67057435 351.82981407 -151.46867814 346.58896236 -148.90968323 340.71989441 C-148.46621048 339.68432907 -148.02273773 338.64876373 -147.56582642 337.58181763 C-146.09584339 334.15436019 -144.614063 330.73213448 -143.13233948 327.30973816 C-142.09051402 324.88625801 -141.04951282 322.46242337 -140.0092926 320.03825378 C-137.83485965 314.97320356 -135.65514155 309.91045966 -133.47169495 304.84928894 C-130.34908666 297.61025559 -127.24029801 290.3653426 -124.13624573 283.11833191 C-123.64538986 281.97236038 -123.154534 280.82638885 -122.64880371 279.64569092 C-121.65980496 277.3366112 -120.67084716 275.02751394 -119.68193054 272.71839905 C-118.18255594 269.21856598 -116.68193018 265.71927192 -115.18092346 262.22013855 C-108.32672388 246.23998539 -101.50252627 230.24725567 -94.69483948 214.24723816 C-86.72084889 195.50688566 -78.72038299 176.77806814 -70.69483948 158.05973816 C-70.1838974 156.86802002 -69.67295532 155.67630188 -69.14653015 154.44847107 C-64.79529719 144.30047847 -60.44218341 134.15329338 -56.08747864 124.00679016 C-48.80825785 107.04516659 -41.55713972 90.07171395 -34.3238678 73.09043884 C-32.83299589 69.59062279 -31.34156 66.09104742 -29.85011292 62.59147644 C-25.21945451 51.72242125 -20.59997069 40.84891232 -16.01124573 29.96208191 C-14.83764743 27.18246568 -13.66372362 24.40298716 -12.48970032 21.62355042 C-11.40491977 19.05079154 -10.3254457 16.47584898 -9.24610901 13.90080261 C-8.59777277 12.36512797 -7.94918857 10.82955798 -7.30030823 9.29411316 C-7.01184525 8.60103561 -6.72338226 7.90795807 -6.42617798 7.19387817 C-3.54095539 0.39887167 -3.54095539 0.39887167 0 0 Z M0.80516052 5.24723816 C-4.53497876 16.59351957 -4.53497876 16.59351957 -9.53468323 28.05583191 C-9.81406738 28.72444244 -10.09345154 29.39305298 -10.38130188 30.08192444 C-10.98418801 31.52476623 -11.58586219 32.96811497 -12.18638611 34.41194153 C-13.90463708 38.54030043 -15.63554971 42.66334365 -17.36671448 46.78630066 C-17.7441832 47.68538651 -18.12165192 48.58447235 -18.51055908 49.51080322 C-23.57435457 61.55274874 -28.73100413 73.55505155 -33.88233948 85.55973816 C-34.39447998 86.75354095 -34.90662048 87.94734375 -35.4342804 89.17732239 C-38.52847668 96.38958246 -41.62417651 103.60119629 -44.72035217 110.81260681 C-48.73521843 120.16472904 -52.74696259 129.51819003 -56.75733948 138.87223816 C-57.39503265 140.35947388 -57.39503265 140.35947388 -58.04560852 141.87675476 C-65.37520242 158.97348203 -72.66758849 176.08592212 -79.95097351 193.20237732 C-87.83160059 211.72084557 -95.74904517 230.22329767 -103.68412781 248.7184906 C-109.36467762 261.95976481 -115.03508336 275.20524613 -120.67921448 288.46208191 C-121.07724022 289.3969235 -121.07724022 289.3969235 -121.48330688 290.35065079 C-124.28626877 296.93447806 -127.08714909 303.51918849 -129.88624573 310.10466003 C-130.34807251 311.19049881 -130.80989929 312.27633759 -131.28572083 313.39508057 C-132.14031463 315.40444587 -132.99432818 317.41405812 -133.84761047 319.42398071 C-134.42312653 320.77689964 -134.42312653 320.77689964 -135.01026917 322.15715027 C-135.55234009 323.43511978 -135.55234009 323.43511978 -136.10536194 324.73890686 C-136.84837563 326.4495658 -137.61520968 328.15002704 -138.40248108 329.84077454 C-138.77900818 330.64981232 -139.15553528 331.4588501 -139.54347229 332.29240417 C-140.055784 333.36543541 -140.055784 333.36543541 -140.57844543 334.46014404 C-140.88356049 335.34475563 -140.88356049 335.34475563 -141.19483948 336.24723816 C-140.86483948 336.90723816 -140.53483948 337.56723816 -140.19483948 338.24723816 C-131.49056359 325.9400935 -122.83265176 313.60109945 -114.19483948 301.24723816 C-107.06082068 291.04411313 -99.92047033 280.84595457 -92.7334137 270.68009949 C-88.87110476 265.2137122 -85.03031879 259.73247605 -81.19483948 254.24723816 C-76.87577144 248.07040504 -72.54585683 241.90160901 -68.19483948 235.74723816 C-62.10432465 227.13101666 -56.05436082 218.48664461 -50.00782776 209.83952332 C-46.92580961 205.4327271 -43.84144695 201.02757229 -40.75733948 196.62223816 C-39.65446415 195.04672485 -38.55159921 193.47120427 -37.44874573 191.89567566 C-36.93849633 191.18838507 -36.42824694 190.48109447 -35.90253544 189.75237083 C-34.15765445 187.28425886 -34.15765445 187.28425886 -32.78684902 184.64570045 C-28.83573771 177.80132536 -28.83573771 177.80132536 -24.51693916 176.34298325 C-21.1888827 176.01461982 -17.99306004 176.00941228 -14.65016174 176.11198425 C-13.40068253 176.11052399 -12.15120331 176.10906372 -10.86386108 176.1075592 C-7.45289014 176.11331647 -4.04804477 176.16327404 -0.63815808 176.23329878 C2.93041417 176.29601039 6.49907698 176.30170119 10.06811523 176.31355286 C16.81894681 176.34457794 23.56815003 176.42655641 30.31826597 176.52704775 C38.00608025 176.63900293 45.69397423 176.69384854 53.38240135 176.7440021 C69.19092932 176.84839937 84.99783458 177.02417447 100.80516052 177.24723816 C100.87177824 177.82526278 100.93839596 178.40328741 101.00703239 178.99882793 C103.14226321 197.40957565 105.59372662 215.77124834 108.11499262 234.13200784 C108.55337109 237.32640848 108.99038827 240.5209948 109.42741477 243.71558064 C110.4569286 251.24111553 111.48847767 258.76636934 112.52146912 266.29142761 C113.584661 274.03669968 114.64469073 281.78239992 115.70317376 289.5283168 C116.61796373 296.22204483 117.53447568 302.91553545 118.45242393 309.60883111 C118.99828308 313.58904234 119.5435391 317.56933366 120.08720779 321.54984474 C120.59577498 325.27268309 121.10650005 328.99521908 121.61890411 332.7175312 C121.80631711 334.08160217 121.99297461 335.44577719 122.17882156 336.81006241 C122.43243436 338.67089697 122.68904816 340.5313218 122.94581604 342.39172363 C123.08848467 343.4322202 123.2311533 344.47271677 123.37814522 345.54474354 C123.80181329 348.48361288 123.80181329 348.48361288 124.80516052 352.24723816 C139.98516052 352.57723816 155.16516052 352.90723816 170.80516052 353.24723816 C170.12736337 343.758078 169.272661 334.52794112 167.90733337 325.14517212 C167.7128992 323.78377795 167.5188978 322.42232191 167.32528543 321.06081063 C166.79800614 317.36173694 166.26466615 313.66356005 165.73023343 309.96551406 C165.15267879 305.96136902 164.58087442 301.95640221 164.0083313 297.95153809 C162.88855953 290.12521903 161.76358473 282.29965651 160.63684499 274.47433793 C159.32432182 265.35720253 158.01717672 256.2392985 156.71027905 247.1213553 C154.37885182 230.85667399 152.04283 214.592656 149.7040863 198.32902527 C147.43510632 182.55048773 145.168989 166.77154279 142.90623474 150.99211121 C142.76667408 150.0188818 142.62711341 149.0456524 142.48332363 148.04293119 C141.92233848 144.13085308 141.36135538 140.21877467 140.80037931 136.30669525 C138.64227981 121.25739198 136.48198626 106.20840356 134.32129756 91.15947185 C133.66881667 86.61497146 133.01643766 82.07045649 132.36429024 77.52590823 C130.99390828 67.97637095 129.62278809 58.42694095 128.24916852 48.87786876 C127.68128564 44.93000444 127.11382656 40.98208052 126.54755211 37.03398514 C126.02938906 33.42146625 125.50994269 29.80913434 124.98945874 26.19694913 C124.71196321 24.2688165 124.43581709 22.34048982 124.15971613 20.412157 C123.99462219 19.26828179 123.82952825 18.12440658 123.65943146 16.94586849 C123.51757841 15.95896996 123.37572536 14.97207144 123.22957373 13.95526689 C122.82501632 11.3739309 122.31758171 8.80934408 121.80516052 6.24723816 C81.87516052 5.91723816 41.94516052 5.58723816 0.80516052 5.24723816 Z " fill="#000000" transform="translate(626.1948394775391,445.7527618408203)"/>
<path d="M0 0 C1.08089401 0.00015106 2.16178802 0.00030212 3.2754364 0.00045776 C5.02398674 0.01594162 5.02398674 0.01594162 6.80786133 0.03173828 C8.00220291 0.03456818 9.19654449 0.03739807 10.42707825 0.04031372 C14.24811755 0.05152401 18.06892392 0.07663042 21.88989258 0.10205078 C24.47777982 0.11207947 27.06567073 0.12120551 29.65356445 0.12939453 C36.00325353 0.15146614 42.35280642 0.18495218 48.70239258 0.22705078 C50.88437244 5.85202661 51.61647779 11.53619814 52.44558716 17.47410583 C52.60907713 18.61240579 52.7725671 19.75070575 52.94101131 20.92349964 C53.39256871 24.07545198 53.8391013 27.22806884 54.28351402 30.38103497 C54.76491321 33.78750194 55.25280912 37.19303895 55.73991394 40.59869385 C56.58437528 46.50913855 57.42474277 52.42015371 58.26236343 58.33157158 C59.48192757 66.9383439 60.70790868 75.54419284 61.93542252 84.14983452 C63.93823957 98.19196826 65.93616316 112.23479366 67.9309082 126.27807617 C69.84900296 139.78163831 71.76888897 153.2849433 73.69165039 166.7878418 C73.86777761 168.02473312 73.86777761 168.02473312 74.04746296 169.28661215 C75.22349103 177.54525907 76.39981812 185.8038634 77.57619653 194.06246043 C78.04027389 197.32046734 78.50433635 200.57847638 78.96838941 203.83648675 C79.19820339 205.44995347 79.42802239 207.06341949 79.65784644 208.67688478 C81.09478947 218.7651146 82.53023614 228.85355565 83.96385992 238.9422577 C84.69250972 244.06986722 85.42165479 249.19740627 86.15098364 254.32491925 C86.65361772 257.85873603 87.15605186 261.39258093 87.6579783 264.92649829 C89.67175544 279.10288426 91.70024666 293.27675249 93.78939135 307.44225147 C94.07915374 309.40760031 94.36825784 311.37304618 94.65735376 313.33849317 C95.54891161 319.3989435 96.44507096 325.45862798 97.35096931 331.51695156 C97.66508278 333.64486146 97.97900279 335.77279992 98.29269409 337.90077209 C98.4369126 338.85170923 98.58113111 339.80264636 98.72971988 340.78239977 C99.44160435 345.64929123 99.95642926 350.30658565 99.70239258 355.22705078 C98.03805799 356.89138537 96.04268725 356.36297242 93.75537109 356.37231445 C92.17351768 356.38188423 92.17351768 356.38188423 90.55970764 356.39164734 C89.41183273 356.39276016 88.26395782 356.39387299 87.08129883 356.39501953 C85.91106674 356.39834793 84.74083466 356.40167633 83.53514099 356.40510559 C81.05435582 356.41017987 78.57356379 356.41251376 76.09277344 356.41235352 C72.28479839 356.41453935 68.47711315 356.43268829 64.66918945 356.45166016 C62.26489357 356.45459402 59.86059631 356.45657886 57.45629883 356.45751953 C55.73752281 356.46829781 55.73752281 356.46829781 53.98402405 356.47929382 C52.92630295 356.47621719 51.86858185 356.47314056 50.77880859 356.4699707 C49.84472672 356.47139572 48.91064484 356.47282074 47.94825745 356.47428894 C45.70239258 356.22705078 45.70239258 356.22705078 43.70239258 354.22705078 C43.13890934 351.97695065 43.13890934 351.97695065 42.68482971 349.07298279 C42.50585868 347.95068048 42.32688765 346.82837816 42.14249325 345.67206669 C41.95028981 344.40815822 41.75808638 343.14424974 41.56005859 341.84204102 C41.34569801 340.46908191 41.13084143 339.09620016 40.91554356 337.72338772 C40.16275589 332.89354154 39.43149137 328.06052167 38.70239258 323.22705078 C38.56653417 322.32804125 38.43067576 321.42903172 38.29070044 320.50277948 C36.00411333 305.3607699 33.76115848 290.21234072 31.52308345 275.06309819 C30.59470274 268.78235002 29.66386768 262.50196557 28.73329163 256.22154236 C27.16455527 245.6321697 25.59708945 235.04261 24.03076172 224.45288086 C20.71162798 202.01275145 17.38971549 179.57303371 14.06636679 157.13352811 C13.11770984 150.72791754 12.16933006 144.32226618 11.22156906 137.91652298 C7.47683781 112.60690302 3.72368512 87.29873236 -0.09399414 62 C-0.38554245 60.06633363 -0.67707306 58.13266458 -0.96858501 56.19899273 C-2.16640561 48.2563531 -3.36591989 40.31399224 -4.57525015 32.37309599 C-5.04536126 29.28199732 -5.51264865 26.19047644 -5.97923398 23.09884381 C-6.19179102 21.69512102 -6.40565887 20.29159595 -6.62097049 18.88829303 C-6.9108751 16.99845964 -7.1959191 15.10788252 -7.48069763 13.2172699 C-7.63977317 12.17233085 -7.79884871 11.1273918 -7.96274471 10.05078793 C-8.57745611 4.86722058 -8.57745611 4.86722058 -8.29760742 2.22705078 C-4.95143851 -0.0037285 -3.90166783 -0.01818959 0 0 Z M-2.29760742 5.22705078 C-1.70191013 12.37541828 -1.09754207 19.35185227 -0.0322113 26.41603088 C0.0921113 27.26142062 0.2164339 28.10681035 0.34452385 28.97781795 C0.75652908 31.77310945 1.17390001 34.56757123 1.59130859 37.36206055 C1.89093848 39.38718969 2.19023521 41.41236815 2.48922729 43.43759155 C3.30290007 48.94233653 4.12128753 54.44637133 4.94054151 59.95028806 C5.81524761 65.83217948 6.68566929 71.71470506 7.55662537 77.59715271 C9.0345958 87.57531357 10.51534453 97.5530588 11.99804688 107.53051758 C14.02696503 121.18361716 16.05105465 134.83742882 18.07401395 148.4914124 C22.05200517 175.33883252 26.04123725 202.18457358 30.03629577 229.02945888 C31.16902305 236.64116939 32.30097629 244.25299456 33.43239087 251.86490029 C35.32441326 264.5940041 37.21835531 277.32281929 39.11597842 290.05108947 C40.00762367 296.03189762 40.89844932 302.01282474 41.78708076 307.9940815 C42.60912053 313.52668843 43.43371035 319.05890907 44.26034665 324.59083104 C44.56254856 326.61618079 44.86382451 328.64166895 45.16412234 330.66730189 C45.57253503 333.4211938 45.98424893 336.17457197 46.39683533 338.92784119 C46.51550054 339.73338001 46.63416575 340.53891884 46.75642687 341.36886793 C47.21856081 344.43325739 47.72015079 347.28032541 48.70239258 350.22705078 C63.55239258 350.55705078 78.40239258 350.88705078 93.70239258 351.22705078 C93.02430874 341.733877 92.16901778 332.49866335 90.80456543 323.11152649 C90.61013279 321.74870665 90.41613133 320.38582524 90.22251749 319.02288884 C89.69523545 315.319955 89.16189847 311.61791616 88.62746549 307.91600859 C88.04992401 303.90780938 87.47811776 299.89879137 86.90556335 295.88987732 C85.7858377 288.05620214 84.66087575 280.22328769 83.53407705 272.39062712 C82.22174528 263.2669647 80.91454428 254.14256938 79.6075111 245.01814666 C77.27619483 228.74450232 74.9400821 212.47155015 72.60131836 196.19897461 C70.3316126 180.40686835 68.06556942 164.61424209 65.8034668 148.82104492 C62.94483582 128.86315586 60.08301983 108.90572613 57.21852961 88.94867719 C56.30538827 82.58610838 55.39338833 76.22337655 54.48176575 69.86058998 C53.37223888 62.11696042 52.26063656 54.37363204 51.14640057 46.63067863 C50.5778004 42.67911306 50.01009291 38.72742472 49.44478416 34.77538681 C48.92782412 31.16156364 48.40830346 27.54811843 47.8866908 23.93496396 C47.60824943 22.001512 47.33255788 20.06766465 47.05694818 18.133807 C46.89185424 16.99391389 46.7267603 15.85402078 46.55666351 14.67958546 C46.34388394 13.1980985 46.34388394 13.1980985 46.12680578 11.68668252 C45.74432399 9.10232873 45.74432399 9.10232873 44.70239258 6.22705078 C21.43739258 5.73205078 21.43739258 5.73205078 -2.29760742 5.22705078 Z " fill="#000000" transform="translate(778.297607421875,446.77294921875)"/>
<path d="M0 0 C1.12760742 0.01345459 2.25521484 0.02690918 3.41699219 0.04077148 C4.6916333 0.04633057 5.96627441 0.05188965 7.27954102 0.05761719 C8.67434822 0.09106516 10.0691239 0.1258505 11.46386719 0.16186523 C12.90745501 0.18275471 14.3510596 0.2025134 15.79467773 0.22119141 C126.1762531 2.0153634 126.1762531 2.0153634 160.36621094 34.65405273 C169.66174998 44.382345 172.57174633 54.73715111 172.42089844 67.91577148 C171.35520865 86.87700674 161.06951767 100.45813156 147.78027344 112.87280273 C122.2695228 134.64082942 86.20895334 141.84621997 54.21386719 147.59936523 C52.82893066 147.84879883 52.82893066 147.84879883 51.41601562 148.10327148 C13.87566255 154.63714713 -24.80646481 154.80438794 -62.78613281 154.59936523 C-64.31454956 149.90977619 -62.50126506 146.57161128 -60.68237305 142.21069336 C-60.33872522 141.3611911 -59.9950774 140.51168884 -59.64101601 139.63644409 C-58.48986411 136.79694152 -57.32333526 133.96400454 -56.15722656 131.13061523 C-55.33798269 129.1162695 -54.52001 127.10140635 -53.70323181 125.08605957 C-51.96506678 120.79881712 -50.22216163 116.51354312 -48.47674561 112.22924805 C-44.49462189 102.43687995 -40.59525106 92.61157306 -36.68977737 82.78845215 C-34.50810775 77.30443249 -32.31974844 71.82308402 -30.13183594 66.34155273 C-27.45659059 59.63843458 -24.78257912 52.93483438 -22.11352539 46.22924805 C-19.89849195 40.66456719 -17.67928658 35.10156719 -15.45715141 29.53971863 C-14.62356055 27.45114827 -13.79147873 25.36197492 -12.96098518 23.27217102 C-11.81562732 20.39069191 -10.66493656 17.51139831 -9.51293945 14.63256836 C-9.17797455 13.78616791 -8.84300964 12.93976746 -8.49789429 12.06771851 C-3.99489542 0.8593996 -3.99489542 0.8593996 0 0 Z M0.21386719 5.59936523 C-3.48259925 13.46035078 -6.7195175 21.42979829 -9.80175781 29.54858398 C-15.29488509 43.90000026 -20.98517823 58.17026939 -26.70800781 72.43139648 C-27.59420514 74.64118146 -28.48039488 76.85096948 -29.36657715 79.0607605 C-33.02630945 88.18405815 -36.68958464 97.30593042 -40.35546875 106.42675781 C-42.62857526 112.08284954 -44.89837719 117.74025795 -47.16611481 123.39850426 C-48.0244528 125.53814352 -48.88409887 127.67725852 -49.74507904 129.81583595 C-50.9347145 132.77084798 -52.12018024 135.7274997 -53.3046875 138.68457031 C-53.6598645 139.56375122 -54.0150415 140.44293213 -54.38098145 141.34875488 C-54.85981781 142.54780205 -54.85981781 142.54780205 -55.34832764 143.77107239 C-55.62771557 144.46639981 -55.9071035 145.16172724 -56.19495773 145.87812519 C-56.89441064 147.61130018 -56.89441064 147.61130018 -56.78613281 149.59936523 C6.67974616 150.45959552 90.69436701 150.26867112 143.21386719 109.59936523 C144.1071875 108.91358398 145.00050781 108.22780273 145.92089844 107.52124023 C157.92415172 97.56462461 164.99393762 83.974433 167.21386719 68.59936523 C168.26979195 57.14664283 164.27236568 47.52313234 157.21386719 38.59936523 C141.79179652 22.63666847 117.11647836 17.0303335 96.21386719 12.59936523 C95.4984375 12.44725586 94.78300781 12.29514648 94.04589844 12.13842773 C63.57186491 5.8903667 31.19718563 5.20100828 0.21386719 5.59936523 Z " fill="#000000" transform="translate(681.7861328125,222.400634765625)"/>
<path d="M0 0 C2.0625 0.4375 2.0625 0.4375 4 1 C7.26243478 16.09900718 10.25949824 31.24930851 13.19119263 46.41549683 C13.60485547 48.55236543 14.02043914 50.68886311 14.43795776 52.82498169 C15.03327136 55.87445246 15.62110744 58.92527544 16.20703125 61.9765625 C16.38805389 62.89764297 16.56907654 63.81872345 16.75558472 64.76771545 C17.60292906 69.22512086 18.32686392 73.43853394 18 78 C16.24560837 79.75439163 13.94502544 79.11982963 11.60829163 79.12442017 C10.8357756 79.12082489 10.06325958 79.11722961 9.26733398 79.11352539 C8.05279541 79.11374443 8.05279541 79.11374443 6.8137207 79.1139679 C4.12448492 79.11326854 1.43531751 79.1054751 -1.25390625 79.09765625 C-3.11335716 79.09579215 -4.97280856 79.09436821 -6.83226013 79.09336853 C-11.73629096 79.08954271 -16.64029236 79.07971188 -21.54431152 79.06866455 C-26.54451092 79.05845181 -31.54471506 79.05387121 -36.54492188 79.04882812 C-46.36329421 79.03808967 -56.18164466 79.02101248 -66 79 C-66 73.91060862 -63.93019364 72.34556761 -60.5625 68.9375 C-59.44539566 67.77063746 -58.33083535 66.6013344 -57.21875 65.4296875 C-56.66703125 64.84928711 -56.1153125 64.26888672 -55.546875 63.67089844 C-53.43592311 61.39069725 -51.49610156 58.99393181 -49.5625 56.5625 C-45.53488871 51.54077775 -41.20654144 46.87417239 -36.79711914 42.19165039 C-33.55436739 38.72921156 -30.46563219 35.20704024 -27.5 31.5 C-23.50465267 26.50581584 -19.20484053 21.87143161 -14.82324219 17.2199707 C-10.53510664 12.64211341 -6.528972 7.911215 -2.609375 3.01171875 C-1 1 -1 1 0 0 Z M-1 9 C-4.27887778 12.71760086 -7.53824669 16.4507616 -10.75 20.2265625 C-16.07867861 26.48756159 -21.47356322 32.65204773 -27.06982422 38.67529297 C-29.96748224 41.81503117 -32.70346573 45.04166489 -35.375 48.375 C-39.49813952 53.51214851 -43.92578532 58.30434596 -48.48388672 63.05419922 C-49.27496826 63.88781982 -49.27496826 63.88781982 -50.08203125 64.73828125 C-50.78162964 65.46591675 -50.78162964 65.46591675 -51.49536133 66.20825195 C-53.54037855 68.64349151 -55.23604577 71.35406866 -57 74 C-34.23 74 -11.46 74 12 74 C11.22198089 65.94818622 11.22198089 65.94818622 10.00024414 58.03125 C9.70972923 56.45041626 9.70972923 56.45041626 9.41334534 54.83764648 C9.20604294 53.73622314 8.99874054 52.6347998 8.78515625 51.5 C8.5693541 50.34250244 8.35355194 49.18500488 8.13121033 47.99243164 C7.67701247 45.56501363 7.22056291 43.13801596 6.76196289 40.71142578 C6.05967188 36.98499371 5.37038361 33.25630062 4.68164062 29.52734375 C4.23776744 27.16391432 3.79313322 24.80062766 3.34765625 22.4375 C3.14237808 21.31988281 2.93709991 20.20226562 2.7256012 19.05078125 C2.52877243 18.02210938 2.33194366 16.9934375 2.12915039 15.93359375 C1.87386314 14.5731897 1.87386314 14.5731897 1.61341858 13.18530273 C1.14009416 10.81363151 1.14009416 10.81363151 -1 9 Z " fill="#000000" transform="translate(699,498)"/>
</svg>
